<?xml version="1.0" encoding="utf-8" standalone="no"?>
<!DOCTYPE svg PUBLIC "-//W3C//DTD SVG 1.1//EN"
  "http://www.w3.org/Graphics/SVG/1.1/DTD/svg11.dtd">
<!-- Created with matplotlib (http://matplotlib.org/) -->
<svg height="1080pt" version="1.1" viewBox="0 0 2160 1080" width="2160pt" xmlns="http://www.w3.org/2000/svg" xmlns:xlink="http://www.w3.org/1999/xlink">
 <defs>
  <style type="text/css">
*{stroke-linecap:butt;stroke-linejoin:round;}
  </style>
 </defs>
 <g id="figure_1">
  <g id="patch_1">
   <path d="M 0 1080 
L 2160 1080 
L 2160 0 
L 0 0 
z
" style="fill:#f0f0f0;"/>
  </g>
  <g id="axes_1">
   <g id="patch_2">
    <path d="M 172.8 1004.4 
L 1026.981818 1004.4 
L 1026.981818 129.6 
L 172.8 129.6 
z
" style="fill:#f0f0f0;"/>
   </g>
   <g id="matplotlib.axis_1"/>
   <g id="matplotlib.axis_2">
    <g id="ytick_1">
     <g id="line2d_1"/>
     <g id="text_1">
      <!-- Lucknow, India -->
      <defs>
       <path d="M 9.8125 72.90625 
L 19.671875 72.90625 
L 19.671875 8.296875 
L 55.171875 8.296875 
L 55.171875 0 
L 9.8125 0 
z
" id="DejaVuSans-4c"/>
       <path d="M 8.5 21.578125 
L 8.5 54.6875 
L 17.484375 54.6875 
L 17.484375 21.921875 
Q 17.484375 14.15625 20.5 10.265625 
Q 23.53125 6.390625 29.59375 6.390625 
Q 36.859375 6.390625 41.078125 11.03125 
Q 45.3125 15.671875 45.3125 23.6875 
L 45.3125 54.6875 
L 54.296875 54.6875 
L 54.296875 0 
L 45.3125 0 
L 45.3125 8.40625 
Q 42.046875 3.421875 37.71875 1 
Q 33.40625 -1.421875 27.6875 -1.421875 
Q 18.265625 -1.421875 13.375 4.4375 
Q 8.5 10.296875 8.5 21.578125 
z
M 31.109375 56 
z
" id="DejaVuSans-75"/>
       <path d="M 48.78125 52.59375 
L 48.78125 44.1875 
Q 44.96875 46.296875 41.140625 47.34375 
Q 37.3125 48.390625 33.40625 48.390625 
Q 24.65625 48.390625 19.8125 42.84375 
Q 14.984375 37.3125 14.984375 27.296875 
Q 14.984375 17.28125 19.8125 11.734375 
Q 24.65625 6.203125 33.40625 6.203125 
Q 37.3125 6.203125 41.140625 7.25 
Q 44.96875 8.296875 48.78125 10.40625 
L 48.78125 2.09375 
Q 45.015625 0.34375 40.984375 -0.53125 
Q 36.96875 -1.421875 32.421875 -1.421875 
Q 20.0625 -1.421875 12.78125 6.34375 
Q 5.515625 14.109375 5.515625 27.296875 
Q 5.515625 40.671875 12.859375 48.328125 
Q 20.21875 56 33.015625 56 
Q 37.15625 56 41.109375 55.140625 
Q 45.0625 54.296875 48.78125 52.59375 
z
" id="DejaVuSans-63"/>
       <path d="M 9.078125 75.984375 
L 18.109375 75.984375 
L 18.109375 31.109375 
L 44.921875 54.6875 
L 56.390625 54.6875 
L 27.390625 29.109375 
L 57.625 0 
L 45.90625 0 
L 18.109375 26.703125 
L 18.109375 0 
L 9.078125 0 
z
" id="DejaVuSans-6b"/>
       <path d="M 54.890625 33.015625 
L 54.890625 0 
L 45.90625 0 
L 45.90625 32.71875 
Q 45.90625 40.484375 42.875 44.328125 
Q 39.84375 48.1875 33.796875 48.1875 
Q 26.515625 48.1875 22.3125 43.546875 
Q 18.109375 38.921875 18.109375 30.90625 
L 18.109375 0 
L 9.078125 0 
L 9.078125 54.6875 
L 18.109375 54.6875 
L 18.109375 46.1875 
Q 21.34375 51.125 25.703125 53.5625 
Q 30.078125 56 35.796875 56 
Q 45.21875 56 50.046875 50.171875 
Q 54.890625 44.34375 54.890625 33.015625 
z
" id="DejaVuSans-6e"/>
       <path d="M 30.609375 48.390625 
Q 23.390625 48.390625 19.1875 42.75 
Q 14.984375 37.109375 14.984375 27.296875 
Q 14.984375 17.484375 19.15625 11.84375 
Q 23.34375 6.203125 30.609375 6.203125 
Q 37.796875 6.203125 41.984375 11.859375 
Q 46.1875 17.53125 46.1875 27.296875 
Q 46.1875 37.015625 41.984375 42.703125 
Q 37.796875 48.390625 30.609375 48.390625 
z
M 30.609375 56 
Q 42.328125 56 49.015625 48.375 
Q 55.71875 40.765625 55.71875 27.296875 
Q 55.71875 13.875 49.015625 6.21875 
Q 42.328125 -1.421875 30.609375 -1.421875 
Q 18.84375 -1.421875 12.171875 6.21875 
Q 5.515625 13.875 5.515625 27.296875 
Q 5.515625 40.765625 12.171875 48.375 
Q 18.84375 56 30.609375 56 
z
" id="DejaVuSans-6f"/>
       <path d="M 4.203125 54.6875 
L 13.1875 54.6875 
L 24.421875 12.015625 
L 35.59375 54.6875 
L 46.1875 54.6875 
L 57.421875 12.015625 
L 68.609375 54.6875 
L 77.59375 54.6875 
L 63.28125 0 
L 52.6875 0 
L 40.921875 44.828125 
L 29.109375 0 
L 18.5 0 
z
" id="DejaVuSans-77"/>
       <path d="M 11.71875 12.40625 
L 22.015625 12.40625 
L 22.015625 4 
L 14.015625 -11.625 
L 7.71875 -11.625 
L 11.71875 4 
z
" id="DejaVuSans-2c"/>
       <path id="DejaVuSans-20"/>
       <path d="M 9.8125 72.90625 
L 19.671875 72.90625 
L 19.671875 0 
L 9.8125 0 
z
" id="DejaVuSans-49"/>
       <path d="M 45.40625 46.390625 
L 45.40625 75.984375 
L 54.390625 75.984375 
L 54.390625 0 
L 45.40625 0 
L 45.40625 8.203125 
Q 42.578125 3.328125 38.25 0.953125 
Q 33.9375 -1.421875 27.875 -1.421875 
Q 17.96875 -1.421875 11.734375 6.484375 
Q 5.515625 14.40625 5.515625 27.296875 
Q 5.515625 40.1875 11.734375 48.09375 
Q 17.96875 56 27.875 56 
Q 33.9375 56 38.25 53.625 
Q 42.578125 51.265625 45.40625 46.390625 
z
M 14.796875 27.296875 
Q 14.796875 17.390625 18.875 11.75 
Q 22.953125 6.109375 30.078125 6.109375 
Q 37.203125 6.109375 41.296875 11.75 
Q 45.40625 17.390625 45.40625 27.296875 
Q 45.40625 37.203125 41.296875 42.84375 
Q 37.203125 48.484375 30.078125 48.484375 
Q 22.953125 48.484375 18.875 42.84375 
Q 14.796875 37.203125 14.796875 27.296875 
z
" id="DejaVuSans-64"/>
       <path d="M 9.421875 54.6875 
L 18.40625 54.6875 
L 18.40625 0 
L 9.421875 0 
z
M 9.421875 75.984375 
L 18.40625 75.984375 
L 18.40625 64.59375 
L 9.421875 64.59375 
z
" id="DejaVuSans-69"/>
       <path d="M 34.28125 27.484375 
Q 23.390625 27.484375 19.1875 25 
Q 14.984375 22.515625 14.984375 16.5 
Q 14.984375 11.71875 18.140625 8.90625 
Q 21.296875 6.109375 26.703125 6.109375 
Q 34.1875 6.109375 38.703125 11.40625 
Q 43.21875 16.703125 43.21875 25.484375 
L 43.21875 27.484375 
z
M 52.203125 31.203125 
L 52.203125 0 
L 43.21875 0 
L 43.21875 8.296875 
Q 40.140625 3.328125 35.546875 0.953125 
Q 30.953125 -1.421875 24.3125 -1.421875 
Q 15.921875 -1.421875 10.953125 3.296875 
Q 6 8.015625 6 15.921875 
Q 6 25.140625 12.171875 29.828125 
Q 18.359375 34.515625 30.609375 34.515625 
L 43.21875 34.515625 
L 43.21875 35.40625 
Q 43.21875 41.609375 39.140625 45 
Q 35.0625 48.390625 27.6875 48.390625 
Q 23 48.390625 18.546875 47.265625 
Q 14.109375 46.140625 10.015625 43.890625 
L 10.015625 52.203125 
Q 14.9375 54.109375 19.578125 55.046875 
Q 24.21875 56 28.609375 56 
Q 40.484375 56 46.34375 49.84375 
Q 52.203125 43.703125 52.203125 31.203125 
z
" id="DejaVuSans-61"/>
      </defs>
      <g transform="translate(64.678438 933.80651)scale(0.14 -0.14)">
       <use xlink:href="#DejaVuSans-4c"/>
       <use x="55.697266" xlink:href="#DejaVuSans-75"/>
       <use x="119.076172" xlink:href="#DejaVuSans-63"/>
       <use x="174.056641" xlink:href="#DejaVuSans-6b"/>
       <use x="231.966797" xlink:href="#DejaVuSans-6e"/>
       <use x="295.345703" xlink:href="#DejaVuSans-6f"/>
       <use x="356.527344" xlink:href="#DejaVuSans-77"/>
       <use x="438.314453" xlink:href="#DejaVuSans-2c"/>
       <use x="470.101562" xlink:href="#DejaVuSans-20"/>
       <use x="501.888672" xlink:href="#DejaVuSans-49"/>
       <use x="531.380859" xlink:href="#DejaVuSans-6e"/>
       <use x="594.759766" xlink:href="#DejaVuSans-64"/>
       <use x="658.236328" xlink:href="#DejaVuSans-69"/>
       <use x="686.019531" xlink:href="#DejaVuSans-61"/>
      </g>
     </g>
    </g>
    <g id="ytick_2">
     <g id="line2d_2"/>
     <g id="text_2">
      <!-- Khanna, India -->
      <defs>
       <path d="M 9.8125 72.90625 
L 19.671875 72.90625 
L 19.671875 42.09375 
L 52.390625 72.90625 
L 65.09375 72.90625 
L 28.90625 38.921875 
L 67.671875 0 
L 54.6875 0 
L 19.671875 35.109375 
L 19.671875 0 
L 9.8125 0 
z
" id="DejaVuSans-4b"/>
       <path d="M 54.890625 33.015625 
L 54.890625 0 
L 45.90625 0 
L 45.90625 32.71875 
Q 45.90625 40.484375 42.875 44.328125 
Q 39.84375 48.1875 33.796875 48.1875 
Q 26.515625 48.1875 22.3125 43.546875 
Q 18.109375 38.921875 18.109375 30.90625 
L 18.109375 0 
L 9.078125 0 
L 9.078125 75.984375 
L 18.109375 75.984375 
L 18.109375 46.1875 
Q 21.34375 51.125 25.703125 53.5625 
Q 30.078125 56 35.796875 56 
Q 45.21875 56 50.046875 50.171875 
Q 54.890625 44.34375 54.890625 33.015625 
z
" id="DejaVuSans-68"/>
      </defs>
      <g transform="translate(73.085 843.434609)scale(0.14 -0.14)">
       <use xlink:href="#DejaVuSans-4b"/>
       <use x="65.576172" xlink:href="#DejaVuSans-68"/>
       <use x="128.955078" xlink:href="#DejaVuSans-61"/>
       <use x="190.234375" xlink:href="#DejaVuSans-6e"/>
       <use x="253.613281" xlink:href="#DejaVuSans-6e"/>
       <use x="316.992188" xlink:href="#DejaVuSans-61"/>
       <use x="378.271484" xlink:href="#DejaVuSans-2c"/>
       <use x="410.058594" xlink:href="#DejaVuSans-20"/>
       <use x="441.845703" xlink:href="#DejaVuSans-49"/>
       <use x="471.337891" xlink:href="#DejaVuSans-6e"/>
       <use x="534.716797" xlink:href="#DejaVuSans-64"/>
       <use x="598.193359" xlink:href="#DejaVuSans-69"/>
       <use x="625.976562" xlink:href="#DejaVuSans-61"/>
      </g>
     </g>
    </g>
    <g id="ytick_3">
     <g id="line2d_3"/>
     <g id="text_3">
      <!-- Firozabad, India -->
      <defs>
       <path d="M 9.8125 72.90625 
L 51.703125 72.90625 
L 51.703125 64.59375 
L 19.671875 64.59375 
L 19.671875 43.109375 
L 48.578125 43.109375 
L 48.578125 34.8125 
L 19.671875 34.8125 
L 19.671875 0 
L 9.8125 0 
z
" id="DejaVuSans-46"/>
       <path d="M 41.109375 46.296875 
Q 39.59375 47.171875 37.8125 47.578125 
Q 36.03125 48 33.890625 48 
Q 26.265625 48 22.1875 43.046875 
Q 18.109375 38.09375 18.109375 28.8125 
L 18.109375 0 
L 9.078125 0 
L 9.078125 54.6875 
L 18.109375 54.6875 
L 18.109375 46.1875 
Q 20.953125 51.171875 25.484375 53.578125 
Q 30.03125 56 36.53125 56 
Q 37.453125 56 38.578125 55.875 
Q 39.703125 55.765625 41.0625 55.515625 
z
" id="DejaVuSans-72"/>
       <path d="M 5.515625 54.6875 
L 48.1875 54.6875 
L 48.1875 46.484375 
L 14.40625 7.171875 
L 48.1875 7.171875 
L 48.1875 0 
L 4.296875 0 
L 4.296875 8.203125 
L 38.09375 47.515625 
L 5.515625 47.515625 
z
" id="DejaVuSans-7a"/>
       <path d="M 48.6875 27.296875 
Q 48.6875 37.203125 44.609375 42.84375 
Q 40.53125 48.484375 33.40625 48.484375 
Q 26.265625 48.484375 22.1875 42.84375 
Q 18.109375 37.203125 18.109375 27.296875 
Q 18.109375 17.390625 22.1875 11.75 
Q 26.265625 6.109375 33.40625 6.109375 
Q 40.53125 6.109375 44.609375 11.75 
Q 48.6875 17.390625 48.6875 27.296875 
z
M 18.109375 46.390625 
Q 20.953125 51.265625 25.265625 53.625 
Q 29.59375 56 35.59375 56 
Q 45.5625 56 51.78125 48.09375 
Q 58.015625 40.1875 58.015625 27.296875 
Q 58.015625 14.40625 51.78125 6.484375 
Q 45.5625 -1.421875 35.59375 -1.421875 
Q 29.59375 -1.421875 25.265625 0.953125 
Q 20.953125 3.328125 18.109375 8.203125 
L 18.109375 0 
L 9.078125 0 
L 9.078125 75.984375 
L 18.109375 75.984375 
z
" id="DejaVuSans-62"/>
      </defs>
      <g transform="translate(57.516563 753.062708)scale(0.14 -0.14)">
       <use xlink:href="#DejaVuSans-46"/>
       <use x="57.410156" xlink:href="#DejaVuSans-69"/>
       <use x="85.193359" xlink:href="#DejaVuSans-72"/>
       <use x="126.275391" xlink:href="#DejaVuSans-6f"/>
       <use x="187.457031" xlink:href="#DejaVuSans-7a"/>
       <use x="239.947266" xlink:href="#DejaVuSans-61"/>
       <use x="301.226562" xlink:href="#DejaVuSans-62"/>
       <use x="364.703125" xlink:href="#DejaVuSans-61"/>
       <use x="425.982422" xlink:href="#DejaVuSans-64"/>
       <use x="489.458984" xlink:href="#DejaVuSans-2c"/>
       <use x="521.246094" xlink:href="#DejaVuSans-20"/>
       <use x="553.033203" xlink:href="#DejaVuSans-49"/>
       <use x="582.525391" xlink:href="#DejaVuSans-6e"/>
       <use x="645.904297" xlink:href="#DejaVuSans-64"/>
       <use x="709.380859" xlink:href="#DejaVuSans-69"/>
       <use x="737.164062" xlink:href="#DejaVuSans-61"/>
      </g>
     </g>
    </g>
    <g id="ytick_4">
     <g id="line2d_4"/>
     <g id="text_4">
      <!-- Kanpur, India -->
      <defs>
       <path d="M 18.109375 8.203125 
L 18.109375 -20.796875 
L 9.078125 -20.796875 
L 9.078125 54.6875 
L 18.109375 54.6875 
L 18.109375 46.390625 
Q 20.953125 51.265625 25.265625 53.625 
Q 29.59375 56 35.59375 56 
Q 45.5625 56 51.78125 48.09375 
Q 58.015625 40.1875 58.015625 27.296875 
Q 58.015625 14.40625 51.78125 6.484375 
Q 45.5625 -1.421875 35.59375 -1.421875 
Q 29.59375 -1.421875 25.265625 0.953125 
Q 20.953125 3.328125 18.109375 8.203125 
z
M 48.6875 27.296875 
Q 48.6875 37.203125 44.609375 42.84375 
Q 40.53125 48.484375 33.40625 48.484375 
Q 26.265625 48.484375 22.1875 42.84375 
Q 18.109375 37.203125 18.109375 27.296875 
Q 18.109375 17.390625 22.1875 11.75 
Q 26.265625 6.109375 33.40625 6.109375 
Q 40.53125 6.109375 44.609375 11.75 
Q 48.6875 17.390625 48.6875 27.296875 
z
" id="DejaVuSans-70"/>
      </defs>
      <g transform="translate(75.895938 662.690807)scale(0.14 -0.14)">
       <use xlink:href="#DejaVuSans-4b"/>
       <use x="65.560547" xlink:href="#DejaVuSans-61"/>
       <use x="126.839844" xlink:href="#DejaVuSans-6e"/>
       <use x="190.21875" xlink:href="#DejaVuSans-70"/>
       <use x="253.695312" xlink:href="#DejaVuSans-75"/>
       <use x="317.074219" xlink:href="#DejaVuSans-72"/>
       <use x="358.1875" xlink:href="#DejaVuSans-2c"/>
       <use x="389.974609" xlink:href="#DejaVuSans-20"/>
       <use x="421.761719" xlink:href="#DejaVuSans-49"/>
       <use x="451.253906" xlink:href="#DejaVuSans-6e"/>
       <use x="514.632812" xlink:href="#DejaVuSans-64"/>
       <use x="578.109375" xlink:href="#DejaVuSans-69"/>
       <use x="605.892578" xlink:href="#DejaVuSans-61"/>
      </g>
     </g>
    </g>
    <g id="ytick_5">
     <g id="line2d_5"/>
     <g id="text_5">
      <!-- Ludhiana, India -->
      <g transform="translate(61.690313 572.318906)scale(0.14 -0.14)">
       <use xlink:href="#DejaVuSans-4c"/>
       <use x="55.697266" xlink:href="#DejaVuSans-75"/>
       <use x="119.076172" xlink:href="#DejaVuSans-64"/>
       <use x="182.552734" xlink:href="#DejaVuSans-68"/>
       <use x="245.931641" xlink:href="#DejaVuSans-69"/>
       <use x="273.714844" xlink:href="#DejaVuSans-61"/>
       <use x="334.994141" xlink:href="#DejaVuSans-6e"/>
       <use x="398.373047" xlink:href="#DejaVuSans-61"/>
       <use x="459.652344" xlink:href="#DejaVuSans-2c"/>
       <use x="491.439453" xlink:href="#DejaVuSans-20"/>
       <use x="523.226562" xlink:href="#DejaVuSans-49"/>
       <use x="552.71875" xlink:href="#DejaVuSans-6e"/>
       <use x="616.097656" xlink:href="#DejaVuSans-64"/>
       <use x="679.574219" xlink:href="#DejaVuSans-69"/>
       <use x="707.357422" xlink:href="#DejaVuSans-61"/>
      </g>
     </g>
    </g>
    <g id="ytick_6">
     <g id="line2d_6"/>
     <g id="text_6">
      <!-- Delhi, India -->
      <defs>
       <path d="M 19.671875 64.796875 
L 19.671875 8.109375 
L 31.59375 8.109375 
Q 46.6875 8.109375 53.6875 14.9375 
Q 60.6875 21.78125 60.6875 36.53125 
Q 60.6875 51.171875 53.6875 57.984375 
Q 46.6875 64.796875 31.59375 64.796875 
z
M 9.8125 72.90625 
L 30.078125 72.90625 
Q 51.265625 72.90625 61.171875 64.09375 
Q 71.09375 55.28125 71.09375 36.53125 
Q 71.09375 17.671875 61.125 8.828125 
Q 51.171875 0 30.078125 0 
L 9.8125 0 
z
" id="DejaVuSans-44"/>
       <path d="M 56.203125 29.59375 
L 56.203125 25.203125 
L 14.890625 25.203125 
Q 15.484375 15.921875 20.484375 11.0625 
Q 25.484375 6.203125 34.421875 6.203125 
Q 39.59375 6.203125 44.453125 7.46875 
Q 49.3125 8.734375 54.109375 11.28125 
L 54.109375 2.78125 
Q 49.265625 0.734375 44.1875 -0.34375 
Q 39.109375 -1.421875 33.890625 -1.421875 
Q 20.796875 -1.421875 13.15625 6.1875 
Q 5.515625 13.8125 5.515625 26.8125 
Q 5.515625 40.234375 12.765625 48.109375 
Q 20.015625 56 32.328125 56 
Q 43.359375 56 49.78125 48.890625 
Q 56.203125 41.796875 56.203125 29.59375 
z
M 47.21875 32.234375 
Q 47.125 39.59375 43.09375 43.984375 
Q 39.0625 48.390625 32.421875 48.390625 
Q 24.90625 48.390625 20.390625 44.140625 
Q 15.875 39.890625 15.1875 32.171875 
z
" id="DejaVuSans-65"/>
       <path d="M 9.421875 75.984375 
L 18.40625 75.984375 
L 18.40625 0 
L 9.421875 0 
z
" id="DejaVuSans-6c"/>
      </defs>
      <g transform="translate(89.996563 481.947005)scale(0.14 -0.14)">
       <use xlink:href="#DejaVuSans-44"/>
       <use x="77.001953" xlink:href="#DejaVuSans-65"/>
       <use x="138.525391" xlink:href="#DejaVuSans-6c"/>
       <use x="166.308594" xlink:href="#DejaVuSans-68"/>
       <use x="229.6875" xlink:href="#DejaVuSans-69"/>
       <use x="257.470703" xlink:href="#DejaVuSans-2c"/>
       <use x="289.257812" xlink:href="#DejaVuSans-20"/>
       <use x="321.044922" xlink:href="#DejaVuSans-49"/>
       <use x="350.537109" xlink:href="#DejaVuSans-6e"/>
       <use x="413.916016" xlink:href="#DejaVuSans-64"/>
       <use x="477.392578" xlink:href="#DejaVuSans-69"/>
       <use x="505.175781" xlink:href="#DejaVuSans-61"/>
      </g>
     </g>
    </g>
    <g id="ytick_7">
     <g id="line2d_7"/>
     <g id="text_7">
      <!-- Raipur, India -->
      <defs>
       <path d="M 44.390625 34.1875 
Q 47.5625 33.109375 50.5625 29.59375 
Q 53.5625 26.078125 56.59375 19.921875 
L 66.609375 0 
L 56 0 
L 46.6875 18.703125 
Q 43.0625 26.03125 39.671875 28.421875 
Q 36.28125 30.8125 30.421875 30.8125 
L 19.671875 30.8125 
L 19.671875 0 
L 9.8125 0 
L 9.8125 72.90625 
L 32.078125 72.90625 
Q 44.578125 72.90625 50.734375 67.671875 
Q 56.890625 62.453125 56.890625 51.90625 
Q 56.890625 45.015625 53.6875 40.46875 
Q 50.484375 35.9375 44.390625 34.1875 
z
M 19.671875 64.796875 
L 19.671875 38.921875 
L 32.078125 38.921875 
Q 39.203125 38.921875 42.84375 42.21875 
Q 46.484375 45.515625 46.484375 51.90625 
Q 46.484375 58.296875 42.84375 61.546875 
Q 39.203125 64.796875 32.078125 64.796875 
z
" id="DejaVuSans-52"/>
      </defs>
      <g transform="translate(80.334375 391.575105)scale(0.14 -0.14)">
       <use xlink:href="#DejaVuSans-52"/>
       <use x="69.451172" xlink:href="#DejaVuSans-61"/>
       <use x="130.730469" xlink:href="#DejaVuSans-69"/>
       <use x="158.513672" xlink:href="#DejaVuSans-70"/>
       <use x="221.990234" xlink:href="#DejaVuSans-75"/>
       <use x="285.369141" xlink:href="#DejaVuSans-72"/>
       <use x="326.482422" xlink:href="#DejaVuSans-2c"/>
       <use x="358.269531" xlink:href="#DejaVuSans-20"/>
       <use x="390.056641" xlink:href="#DejaVuSans-49"/>
       <use x="419.548828" xlink:href="#DejaVuSans-6e"/>
       <use x="482.927734" xlink:href="#DejaVuSans-64"/>
       <use x="546.404297" xlink:href="#DejaVuSans-69"/>
       <use x="574.1875" xlink:href="#DejaVuSans-61"/>
      </g>
     </g>
    </g>
    <g id="ytick_8">
     <g id="line2d_8"/>
     <g id="text_8">
      <!-- Patna, India -->
      <defs>
       <path d="M 19.671875 64.796875 
L 19.671875 37.40625 
L 32.078125 37.40625 
Q 38.96875 37.40625 42.71875 40.96875 
Q 46.484375 44.53125 46.484375 51.125 
Q 46.484375 57.671875 42.71875 61.234375 
Q 38.96875 64.796875 32.078125 64.796875 
z
M 9.8125 72.90625 
L 32.078125 72.90625 
Q 44.34375 72.90625 50.609375 67.359375 
Q 56.890625 61.8125 56.890625 51.125 
Q 56.890625 40.328125 50.609375 34.8125 
Q 44.34375 29.296875 32.078125 29.296875 
L 19.671875 29.296875 
L 19.671875 0 
L 9.8125 0 
z
" id="DejaVuSans-50"/>
       <path d="M 18.3125 70.21875 
L 18.3125 54.6875 
L 36.8125 54.6875 
L 36.8125 47.703125 
L 18.3125 47.703125 
L 18.3125 18.015625 
Q 18.3125 11.328125 20.140625 9.421875 
Q 21.96875 7.515625 27.59375 7.515625 
L 36.8125 7.515625 
L 36.8125 0 
L 27.59375 0 
Q 17.1875 0 13.234375 3.875 
Q 9.28125 7.765625 9.28125 18.015625 
L 9.28125 47.703125 
L 2.6875 47.703125 
L 2.6875 54.6875 
L 9.28125 54.6875 
L 9.28125 70.21875 
z
" id="DejaVuSans-74"/>
      </defs>
      <g transform="translate(86.089687 301.203204)scale(0.14 -0.14)">
       <use xlink:href="#DejaVuSans-50"/>
       <use x="60.240234" xlink:href="#DejaVuSans-61"/>
       <use x="121.519531" xlink:href="#DejaVuSans-74"/>
       <use x="160.728516" xlink:href="#DejaVuSans-6e"/>
       <use x="224.107422" xlink:href="#DejaVuSans-61"/>
       <use x="285.386719" xlink:href="#DejaVuSans-2c"/>
       <use x="317.173828" xlink:href="#DejaVuSans-20"/>
       <use x="348.960938" xlink:href="#DejaVuSans-49"/>
       <use x="378.453125" xlink:href="#DejaVuSans-6e"/>
       <use x="441.832031" xlink:href="#DejaVuSans-64"/>
       <use x="505.308594" xlink:href="#DejaVuSans-69"/>
       <use x="533.091797" xlink:href="#DejaVuSans-61"/>
      </g>
     </g>
    </g>
    <g id="ytick_9">
     <g id="line2d_9"/>
     <g id="text_9">
      <!-- Allahabad, India -->
      <defs>
       <path d="M 34.1875 63.1875 
L 20.796875 26.90625 
L 47.609375 26.90625 
z
M 28.609375 72.90625 
L 39.796875 72.90625 
L 67.578125 0 
L 57.328125 0 
L 50.6875 18.703125 
L 17.828125 18.703125 
L 11.1875 0 
L 0.78125 0 
z
" id="DejaVuSans-41"/>
      </defs>
      <g transform="translate(56.300313 210.831303)scale(0.14 -0.14)">
       <use xlink:href="#DejaVuSans-41"/>
       <use x="68.408203" xlink:href="#DejaVuSans-6c"/>
       <use x="96.191406" xlink:href="#DejaVuSans-6c"/>
       <use x="123.974609" xlink:href="#DejaVuSans-61"/>
       <use x="185.253906" xlink:href="#DejaVuSans-68"/>
       <use x="248.632812" xlink:href="#DejaVuSans-61"/>
       <use x="309.912109" xlink:href="#DejaVuSans-62"/>
       <use x="373.388672" xlink:href="#DejaVuSans-61"/>
       <use x="434.667969" xlink:href="#DejaVuSans-64"/>
       <use x="498.144531" xlink:href="#DejaVuSans-2c"/>
       <use x="529.931641" xlink:href="#DejaVuSans-20"/>
       <use x="561.71875" xlink:href="#DejaVuSans-49"/>
       <use x="591.210938" xlink:href="#DejaVuSans-6e"/>
       <use x="654.589844" xlink:href="#DejaVuSans-64"/>
       <use x="718.066406" xlink:href="#DejaVuSans-69"/>
       <use x="745.849609" xlink:href="#DejaVuSans-61"/>
      </g>
     </g>
    </g>
   </g>
   <g id="patch_3">
    <path clip-path="url(#p4f025922e6)" d="M 1026.981818 964.636364 
L 487.853254 964.636364 
L 487.853254 892.338843 
L 1026.981818 892.338843 
z
" style="fill:#8b0000;"/>
   </g>
   <g id="patch_4">
    <path clip-path="url(#p4f025922e6)" d="M 1026.981818 874.264463 
L 483.039607 874.264463 
L 483.039607 801.966942 
L 1026.981818 801.966942 
z
" style="fill:#8b0000;"/>
   </g>
   <g id="patch_5">
    <path clip-path="url(#p4f025922e6)" d="M 1026.981818 783.892562 
L 483.039607 783.892562 
L 483.039607 711.595041 
L 1026.981818 711.595041 
z
" style="fill:#8b0000;"/>
   </g>
   <g id="patch_6">
    <path clip-path="url(#p4f025922e6)" d="M 1026.981818 693.520661 
L 478.225959 693.520661 
L 478.225959 621.22314 
L 1026.981818 621.22314 
z
" style="fill:#8b0000;"/>
   </g>
   <g id="patch_7">
    <path clip-path="url(#p4f025922e6)" d="M 1026.981818 603.14876 
L 444.530423 603.14876 
L 444.530423 530.85124 
L 1026.981818 530.85124 
z
" style="fill:#8b0000;"/>
   </g>
   <g id="patch_8">
    <path clip-path="url(#p4f025922e6)" d="M 1026.981818 512.77686 
L 439.716776 512.77686 
L 439.716776 440.479339 
L 1026.981818 440.479339 
z
" style="fill:#8b0000;"/>
   </g>
   <g id="patch_9">
    <path clip-path="url(#p4f025922e6)" d="M 1026.981818 422.404959 
L 338.63017 422.404959 
L 338.63017 350.107438 
L 1026.981818 350.107438 
z
" style="fill:#8b0000;"/>
   </g>
   <g id="patch_10">
    <path clip-path="url(#p4f025922e6)" d="M 1026.981818 332.033058 
L 314.56193 332.033058 
L 314.56193 259.735537 
L 1026.981818 259.735537 
z
" style="fill:#8b0000;"/>
   </g>
   <g id="patch_11">
    <path clip-path="url(#p4f025922e6)" d="M 1026.981818 241.661157 
L 213.475325 241.661157 
L 213.475325 169.363636 
L 1026.981818 169.363636 
z
" style="fill:#8b0000;"/>
   </g>
   <g id="patch_12">
    <path d="M 172.8 1004.4 
L 172.8 129.6 
" style="fill:none;stroke:#f0f0f0;stroke-linecap:square;stroke-linejoin:miter;stroke-width:3;"/>
   </g>
   <g id="patch_13">
    <path d="M 1026.981818 1004.4 
L 1026.981818 129.6 
" style="fill:none;stroke:#f0f0f0;stroke-linecap:square;stroke-linejoin:miter;stroke-width:3;"/>
   </g>
   <g id="patch_14">
    <path d="M 172.8 1004.4 
L 1026.981818 1004.4 
" style="fill:none;stroke:#f0f0f0;stroke-linecap:square;stroke-linejoin:miter;stroke-width:3;"/>
   </g>
   <g id="patch_15">
    <path d="M 172.8 129.6 
L 1026.981818 129.6 
" style="fill:none;stroke:#f0f0f0;stroke-linecap:square;stroke-linejoin:miter;stroke-width:3;"/>
   </g>
  </g>
  <g id="axes_2">
   <g id="patch_16">
    <path d="M 1197.818182 1004.4 
L 2052 1004.4 
L 2052 129.6 
L 1197.818182 129.6 
z
" style="fill:#f0f0f0;"/>
   </g>
   <g id="matplotlib.axis_3"/>
   <g id="matplotlib.axis_4">
    <g id="ytick_10">
     <g id="line2d_10"/>
    </g>
    <g id="ytick_11">
     <g id="line2d_11"/>
    </g>
    <g id="ytick_12">
     <g id="line2d_12"/>
    </g>
    <g id="ytick_13">
     <g id="line2d_13"/>
    </g>
    <g id="ytick_14">
     <g id="line2d_14"/>
    </g>
    <g id="ytick_15">
     <g id="line2d_15"/>
    </g>
    <g id="ytick_16">
     <g id="line2d_16"/>
    </g>
    <g id="ytick_17">
     <g id="line2d_17"/>
    </g>
    <g id="ytick_18">
     <g id="line2d_18"/>
    </g>
   </g>
   <g id="patch_17">
    <path clip-path="url(#pc1e1b1fa1a)" d="M 2052 964.636364 
L 1999.049873 964.636364 
L 1999.049873 892.338843 
L 2052 892.338843 
z
" style="fill:#00008b;"/>
   </g>
   <g id="patch_18">
    <path clip-path="url(#pc1e1b1fa1a)" d="M 2052 874.264463 
L 1989.422577 874.264463 
L 1989.422577 801.966942 
L 2052 801.966942 
z
" style="fill:#00008b;"/>
   </g>
   <g id="patch_19">
    <path clip-path="url(#pc1e1b1fa1a)" d="M 2052 783.892562 
L 1989.422577 783.892562 
L 1989.422577 711.595041 
L 2052 711.595041 
z
" style="fill:#00008b;"/>
   </g>
   <g id="patch_20">
    <path clip-path="url(#pc1e1b1fa1a)" d="M 2052 693.520661 
L 1984.60893 693.520661 
L 1984.60893 621.22314 
L 2052 621.22314 
z
" style="fill:#00008b;"/>
   </g>
   <g id="patch_21">
    <path clip-path="url(#pc1e1b1fa1a)" d="M 2052 603.14876 
L 1984.60893 603.14876 
L 1984.60893 530.85124 
L 2052 530.85124 
z
" style="fill:#00008b;"/>
   </g>
   <g id="patch_22">
    <path clip-path="url(#pc1e1b1fa1a)" d="M 2052 512.77686 
L 1984.60893 512.77686 
L 1984.60893 440.479339 
L 2052 440.479339 
z
" style="fill:#00008b;"/>
   </g>
   <g id="patch_23">
    <path clip-path="url(#pc1e1b1fa1a)" d="M 2052 422.404959 
L 1984.60893 422.404959 
L 1984.60893 350.107438 
L 2052 350.107438 
z
" style="fill:#00008b;"/>
   </g>
   <g id="patch_24">
    <path clip-path="url(#pc1e1b1fa1a)" d="M 2052 332.033058 
L 1979.795282 332.033058 
L 1979.795282 259.735537 
L 2052 259.735537 
z
" style="fill:#00008b;"/>
   </g>
   <g id="patch_25">
    <path clip-path="url(#pc1e1b1fa1a)" d="M 2052 241.661157 
L 1979.795282 241.661157 
L 1979.795282 169.363636 
L 2052 169.363636 
z
" style="fill:#00008b;"/>
   </g>
   <g id="patch_26">
    <path d="M 1197.818182 1004.4 
L 1197.818182 129.6 
" style="fill:none;stroke:#f0f0f0;stroke-linecap:square;stroke-linejoin:miter;stroke-width:3;"/>
   </g>
   <g id="patch_27">
    <path d="M 2052 1004.4 
L 2052 129.6 
" style="fill:none;stroke:#f0f0f0;stroke-linecap:square;stroke-linejoin:miter;stroke-width:3;"/>
   </g>
   <g id="patch_28">
    <path d="M 1197.818182 1004.4 
L 2052 1004.4 
" style="fill:none;stroke:#f0f0f0;stroke-linecap:square;stroke-linejoin:miter;stroke-width:3;"/>
   </g>
   <g id="patch_29">
    <path d="M 1197.818182 129.6 
L 2052 129.6 
" style="fill:none;stroke:#f0f0f0;stroke-linecap:square;stroke-linejoin:miter;stroke-width:3;"/>
   </g>
  </g>
 </g>
 <defs>
  <clipPath id="p4f025922e6">
   <rect height="874.8" width="854.181818" x="172.8" y="129.6"/>
  </clipPath>
  <clipPath id="pc1e1b1fa1a">
   <rect height="874.8" width="854.181818" x="1197.818182" y="129.6"/>
  </clipPath>
 </defs>
</svg>
