<?xml version="1.0" encoding="utf-8" standalone="no"?>
<!DOCTYPE svg PUBLIC "-//W3C//DTD SVG 1.1//EN"
  "http://www.w3.org/Graphics/SVG/1.1/DTD/svg11.dtd">
<!-- Created with matplotlib (http://matplotlib.org/) -->
<svg height="1440pt" version="1.1" viewBox="0 0 1440 1440" width="1440pt" xmlns="http://www.w3.org/2000/svg" xmlns:xlink="http://www.w3.org/1999/xlink">
 <defs>
  <style type="text/css">
*{stroke-linecap:butt;stroke-linejoin:round;}
  </style>
 </defs>
 <g id="figure_1">
  <g id="patch_1">
   <path d="M 0 1440 
L 1440 1440 
L 1440 0 
L 0 0 
z
" style="fill:#f0f0f0;"/>
  </g>
  <g id="axes_1">
   <g id="patch_2">
    <path d="M 115.2 1339.2 
L 1368 1339.2 
L 1368 172.8 
L 115.2 172.8 
z
" style="fill:#f0f0f0;"/>
   </g>
   <g id="matplotlib.axis_1">
    <g id="xtick_1">
     <g id="line2d_1">
      <path clip-path="url(#p6228b506b5)" d="M 115.2 1339.2 
L 115.2 172.8 
" style="fill:none;stroke:#cbcbcb;"/>
     </g>
     <g id="line2d_2"/>
    </g>
    <g id="xtick_2">
     <g id="line2d_3">
      <path clip-path="url(#p6228b506b5)" d="M 155.440906 1339.2 
L 155.440906 172.8 
" style="fill:none;stroke:#cbcbcb;"/>
     </g>
     <g id="line2d_4"/>
     <g id="text_1">
      <!-- WHO limit -->
      <defs>
       <path d="M 3.328125 72.90625 
L 13.28125 72.90625 
L 28.609375 11.28125 
L 43.890625 72.90625 
L 54.984375 72.90625 
L 70.3125 11.28125 
L 85.59375 72.90625 
L 95.609375 72.90625 
L 77.296875 0 
L 64.890625 0 
L 49.515625 63.28125 
L 33.984375 0 
L 21.578125 0 
z
" id="DejaVuSans-57"/>
       <path d="M 9.8125 72.90625 
L 19.671875 72.90625 
L 19.671875 43.015625 
L 55.515625 43.015625 
L 55.515625 72.90625 
L 65.375 72.90625 
L 65.375 0 
L 55.515625 0 
L 55.515625 34.71875 
L 19.671875 34.71875 
L 19.671875 0 
L 9.8125 0 
z
" id="DejaVuSans-48"/>
       <path d="M 39.40625 66.21875 
Q 28.65625 66.21875 22.328125 58.203125 
Q 16.015625 50.203125 16.015625 36.375 
Q 16.015625 22.609375 22.328125 14.59375 
Q 28.65625 6.59375 39.40625 6.59375 
Q 50.140625 6.59375 56.421875 14.59375 
Q 62.703125 22.609375 62.703125 36.375 
Q 62.703125 50.203125 56.421875 58.203125 
Q 50.140625 66.21875 39.40625 66.21875 
z
M 39.40625 74.21875 
Q 54.734375 74.21875 63.90625 63.9375 
Q 73.09375 53.65625 73.09375 36.375 
Q 73.09375 19.140625 63.90625 8.859375 
Q 54.734375 -1.421875 39.40625 -1.421875 
Q 24.03125 -1.421875 14.8125 8.828125 
Q 5.609375 19.09375 5.609375 36.375 
Q 5.609375 53.65625 14.8125 63.9375 
Q 24.03125 74.21875 39.40625 74.21875 
z
" id="DejaVuSans-4f"/>
       <path id="DejaVuSans-20"/>
       <path d="M 9.421875 75.984375 
L 18.40625 75.984375 
L 18.40625 0 
L 9.421875 0 
z
" id="DejaVuSans-6c"/>
       <path d="M 9.421875 54.6875 
L 18.40625 54.6875 
L 18.40625 0 
L 9.421875 0 
z
M 9.421875 75.984375 
L 18.40625 75.984375 
L 18.40625 64.59375 
L 9.421875 64.59375 
z
" id="DejaVuSans-69"/>
       <path d="M 52 44.1875 
Q 55.375 50.25 60.0625 53.125 
Q 64.75 56 71.09375 56 
Q 79.640625 56 84.28125 50.015625 
Q 88.921875 44.046875 88.921875 33.015625 
L 88.921875 0 
L 79.890625 0 
L 79.890625 32.71875 
Q 79.890625 40.578125 77.09375 44.375 
Q 74.3125 48.1875 68.609375 48.1875 
Q 61.625 48.1875 57.5625 43.546875 
Q 53.515625 38.921875 53.515625 30.90625 
L 53.515625 0 
L 44.484375 0 
L 44.484375 32.71875 
Q 44.484375 40.625 41.703125 44.40625 
Q 38.921875 48.1875 33.109375 48.1875 
Q 26.21875 48.1875 22.15625 43.53125 
Q 18.109375 38.875 18.109375 30.90625 
L 18.109375 0 
L 9.078125 0 
L 9.078125 54.6875 
L 18.109375 54.6875 
L 18.109375 46.1875 
Q 21.1875 51.21875 25.484375 53.609375 
Q 29.78125 56 35.6875 56 
Q 41.65625 56 45.828125 52.96875 
Q 50 49.953125 52 44.1875 
z
" id="DejaVuSans-6d"/>
       <path d="M 18.3125 70.21875 
L 18.3125 54.6875 
L 36.8125 54.6875 
L 36.8125 47.703125 
L 18.3125 47.703125 
L 18.3125 18.015625 
Q 18.3125 11.328125 20.140625 9.421875 
Q 21.96875 7.515625 27.59375 7.515625 
L 36.8125 7.515625 
L 36.8125 0 
L 27.59375 0 
Q 17.1875 0 13.234375 3.875 
Q 9.28125 7.765625 9.28125 18.015625 
L 9.28125 47.703125 
L 2.6875 47.703125 
L 2.6875 54.6875 
L 9.28125 54.6875 
L 9.28125 70.21875 
z
" id="DejaVuSans-74"/>
      </defs>
      <g transform="translate(120.123718 1353.337813)scale(0.14 -0.14)">
       <use xlink:href="#DejaVuSans-57"/>
       <use x="98.876953" xlink:href="#DejaVuSans-48"/>
       <use x="174.072266" xlink:href="#DejaVuSans-4f"/>
       <use x="252.783203" xlink:href="#DejaVuSans-20"/>
       <use x="284.570312" xlink:href="#DejaVuSans-6c"/>
       <use x="312.353516" xlink:href="#DejaVuSans-69"/>
       <use x="340.136719" xlink:href="#DejaVuSans-6d"/>
       <use x="437.548828" xlink:href="#DejaVuSans-69"/>
       <use x="465.332031" xlink:href="#DejaVuSans-74"/>
      </g>
     </g>
    </g>
    <g id="xtick_3">
     <g id="line2d_5">
      <path clip-path="url(#p6228b506b5)" d="M 316.404529 1339.2 
L 316.404529 172.8 
" style="fill:none;stroke:#cbcbcb;"/>
     </g>
     <g id="line2d_6"/>
     <g id="text_2">
      <!-- 100 -->
      <defs>
       <path d="M 12.40625 8.296875 
L 28.515625 8.296875 
L 28.515625 63.921875 
L 10.984375 60.40625 
L 10.984375 69.390625 
L 28.421875 72.90625 
L 38.28125 72.90625 
L 38.28125 8.296875 
L 54.390625 8.296875 
L 54.390625 0 
L 12.40625 0 
z
" id="DejaVuSans-31"/>
       <path d="M 31.78125 66.40625 
Q 24.171875 66.40625 20.328125 58.90625 
Q 16.5 51.421875 16.5 36.375 
Q 16.5 21.390625 20.328125 13.890625 
Q 24.171875 6.390625 31.78125 6.390625 
Q 39.453125 6.390625 43.28125 13.890625 
Q 47.125 21.390625 47.125 36.375 
Q 47.125 51.421875 43.28125 58.90625 
Q 39.453125 66.40625 31.78125 66.40625 
z
M 31.78125 74.21875 
Q 44.046875 74.21875 50.515625 64.515625 
Q 56.984375 54.828125 56.984375 36.375 
Q 56.984375 17.96875 50.515625 8.265625 
Q 44.046875 -1.421875 31.78125 -1.421875 
Q 19.53125 -1.421875 13.0625 8.265625 
Q 6.59375 17.96875 6.59375 36.375 
Q 6.59375 54.828125 13.0625 64.515625 
Q 19.53125 74.21875 31.78125 74.21875 
z
" id="DejaVuSans-30"/>
      </defs>
      <g transform="translate(303.043279 1353.337813)scale(0.14 -0.14)">
       <use xlink:href="#DejaVuSans-31"/>
       <use x="63.623047" xlink:href="#DejaVuSans-30"/>
       <use x="127.246094" xlink:href="#DejaVuSans-30"/>
      </g>
     </g>
    </g>
    <g id="xtick_4">
     <g id="line2d_7">
      <path clip-path="url(#p6228b506b5)" d="M 517.609058 1339.2 
L 517.609058 172.8 
" style="fill:none;stroke:#cbcbcb;"/>
     </g>
     <g id="line2d_8"/>
     <g id="text_3">
      <!-- 200 -->
      <defs>
       <path d="M 19.1875 8.296875 
L 53.609375 8.296875 
L 53.609375 0 
L 7.328125 0 
L 7.328125 8.296875 
Q 12.9375 14.109375 22.625 23.890625 
Q 32.328125 33.6875 34.8125 36.53125 
Q 39.546875 41.84375 41.421875 45.53125 
Q 43.3125 49.21875 43.3125 52.78125 
Q 43.3125 58.59375 39.234375 62.25 
Q 35.15625 65.921875 28.609375 65.921875 
Q 23.96875 65.921875 18.8125 64.3125 
Q 13.671875 62.703125 7.8125 59.421875 
L 7.8125 69.390625 
Q 13.765625 71.78125 18.9375 73 
Q 24.125 74.21875 28.421875 74.21875 
Q 39.75 74.21875 46.484375 68.546875 
Q 53.21875 62.890625 53.21875 53.421875 
Q 53.21875 48.921875 51.53125 44.890625 
Q 49.859375 40.875 45.40625 35.40625 
Q 44.1875 33.984375 37.640625 27.21875 
Q 31.109375 20.453125 19.1875 8.296875 
z
" id="DejaVuSans-32"/>
      </defs>
      <g transform="translate(504.247808 1353.337813)scale(0.14 -0.14)">
       <use xlink:href="#DejaVuSans-32"/>
       <use x="63.623047" xlink:href="#DejaVuSans-30"/>
       <use x="127.246094" xlink:href="#DejaVuSans-30"/>
      </g>
     </g>
    </g>
    <g id="xtick_5">
     <g id="line2d_9">
      <path clip-path="url(#p6228b506b5)" d="M 718.813587 1339.2 
L 718.813587 172.8 
" style="fill:none;stroke:#cbcbcb;"/>
     </g>
     <g id="line2d_10"/>
     <g id="text_4">
      <!-- 300 -->
      <defs>
       <path d="M 40.578125 39.3125 
Q 47.65625 37.796875 51.625 33 
Q 55.609375 28.21875 55.609375 21.1875 
Q 55.609375 10.40625 48.1875 4.484375 
Q 40.765625 -1.421875 27.09375 -1.421875 
Q 22.515625 -1.421875 17.65625 -0.515625 
Q 12.796875 0.390625 7.625 2.203125 
L 7.625 11.71875 
Q 11.71875 9.328125 16.59375 8.109375 
Q 21.484375 6.890625 26.8125 6.890625 
Q 36.078125 6.890625 40.9375 10.546875 
Q 45.796875 14.203125 45.796875 21.1875 
Q 45.796875 27.640625 41.28125 31.265625 
Q 36.765625 34.90625 28.71875 34.90625 
L 20.21875 34.90625 
L 20.21875 43.015625 
L 29.109375 43.015625 
Q 36.375 43.015625 40.234375 45.921875 
Q 44.09375 48.828125 44.09375 54.296875 
Q 44.09375 59.90625 40.109375 62.90625 
Q 36.140625 65.921875 28.71875 65.921875 
Q 24.65625 65.921875 20.015625 65.03125 
Q 15.375 64.15625 9.8125 62.3125 
L 9.8125 71.09375 
Q 15.4375 72.65625 20.34375 73.4375 
Q 25.25 74.21875 29.59375 74.21875 
Q 40.828125 74.21875 47.359375 69.109375 
Q 53.90625 64.015625 53.90625 55.328125 
Q 53.90625 49.265625 50.4375 45.09375 
Q 46.96875 40.921875 40.578125 39.3125 
z
" id="DejaVuSans-33"/>
      </defs>
      <g transform="translate(705.452337 1353.337813)scale(0.14 -0.14)">
       <use xlink:href="#DejaVuSans-33"/>
       <use x="63.623047" xlink:href="#DejaVuSans-30"/>
       <use x="127.246094" xlink:href="#DejaVuSans-30"/>
      </g>
     </g>
    </g>
    <g id="xtick_6">
     <g id="line2d_11">
      <path clip-path="url(#p6228b506b5)" d="M 920.018116 1339.2 
L 920.018116 172.8 
" style="fill:none;stroke:#cbcbcb;"/>
     </g>
     <g id="line2d_12"/>
     <g id="text_5">
      <!-- 400 -->
      <defs>
       <path d="M 37.796875 64.3125 
L 12.890625 25.390625 
L 37.796875 25.390625 
z
M 35.203125 72.90625 
L 47.609375 72.90625 
L 47.609375 25.390625 
L 58.015625 25.390625 
L 58.015625 17.1875 
L 47.609375 17.1875 
L 47.609375 0 
L 37.796875 0 
L 37.796875 17.1875 
L 4.890625 17.1875 
L 4.890625 26.703125 
z
" id="DejaVuSans-34"/>
      </defs>
      <g transform="translate(906.656866 1353.337813)scale(0.14 -0.14)">
       <use xlink:href="#DejaVuSans-34"/>
       <use x="63.623047" xlink:href="#DejaVuSans-30"/>
       <use x="127.246094" xlink:href="#DejaVuSans-30"/>
      </g>
     </g>
    </g>
    <g id="xtick_7">
     <g id="line2d_13">
      <path clip-path="url(#p6228b506b5)" d="M 1121.222645 1339.2 
L 1121.222645 172.8 
" style="fill:none;stroke:#cbcbcb;"/>
     </g>
     <g id="line2d_14"/>
     <g id="text_6">
      <!-- 500 -->
      <defs>
       <path d="M 10.796875 72.90625 
L 49.515625 72.90625 
L 49.515625 64.59375 
L 19.828125 64.59375 
L 19.828125 46.734375 
Q 21.96875 47.46875 24.109375 47.828125 
Q 26.265625 48.1875 28.421875 48.1875 
Q 40.625 48.1875 47.75 41.5 
Q 54.890625 34.8125 54.890625 23.390625 
Q 54.890625 11.625 47.5625 5.09375 
Q 40.234375 -1.421875 26.90625 -1.421875 
Q 22.3125 -1.421875 17.546875 -0.640625 
Q 12.796875 0.140625 7.71875 1.703125 
L 7.71875 11.625 
Q 12.109375 9.234375 16.796875 8.0625 
Q 21.484375 6.890625 26.703125 6.890625 
Q 35.15625 6.890625 40.078125 11.328125 
Q 45.015625 15.765625 45.015625 23.390625 
Q 45.015625 31 40.078125 35.4375 
Q 35.15625 39.890625 26.703125 39.890625 
Q 22.75 39.890625 18.8125 39.015625 
Q 14.890625 38.140625 10.796875 36.28125 
z
" id="DejaVuSans-35"/>
      </defs>
      <g transform="translate(1107.861395 1353.337813)scale(0.14 -0.14)">
       <use xlink:href="#DejaVuSans-35"/>
       <use x="63.623047" xlink:href="#DejaVuSans-30"/>
       <use x="127.246094" xlink:href="#DejaVuSans-30"/>
      </g>
     </g>
    </g>
    <g id="xtick_8">
     <g id="line2d_15">
      <path clip-path="url(#p6228b506b5)" d="M 1322.427174 1339.2 
L 1322.427174 172.8 
" style="fill:none;stroke:#cbcbcb;"/>
     </g>
     <g id="line2d_16"/>
     <g id="text_7">
      <!-- 600 -->
      <defs>
       <path d="M 33.015625 40.375 
Q 26.375 40.375 22.484375 35.828125 
Q 18.609375 31.296875 18.609375 23.390625 
Q 18.609375 15.53125 22.484375 10.953125 
Q 26.375 6.390625 33.015625 6.390625 
Q 39.65625 6.390625 43.53125 10.953125 
Q 47.40625 15.53125 47.40625 23.390625 
Q 47.40625 31.296875 43.53125 35.828125 
Q 39.65625 40.375 33.015625 40.375 
z
M 52.59375 71.296875 
L 52.59375 62.3125 
Q 48.875 64.0625 45.09375 64.984375 
Q 41.3125 65.921875 37.59375 65.921875 
Q 27.828125 65.921875 22.671875 59.328125 
Q 17.53125 52.734375 16.796875 39.40625 
Q 19.671875 43.65625 24.015625 45.921875 
Q 28.375 48.1875 33.59375 48.1875 
Q 44.578125 48.1875 50.953125 41.515625 
Q 57.328125 34.859375 57.328125 23.390625 
Q 57.328125 12.15625 50.6875 5.359375 
Q 44.046875 -1.421875 33.015625 -1.421875 
Q 20.359375 -1.421875 13.671875 8.265625 
Q 6.984375 17.96875 6.984375 36.375 
Q 6.984375 53.65625 15.1875 63.9375 
Q 23.390625 74.21875 37.203125 74.21875 
Q 40.921875 74.21875 44.703125 73.484375 
Q 48.484375 72.75 52.59375 71.296875 
z
" id="DejaVuSans-36"/>
      </defs>
      <g transform="translate(1309.065924 1353.337813)scale(0.14 -0.14)">
       <use xlink:href="#DejaVuSans-36"/>
       <use x="63.623047" xlink:href="#DejaVuSans-30"/>
       <use x="127.246094" xlink:href="#DejaVuSans-30"/>
      </g>
     </g>
    </g>
    <g id="text_8">
     <!-- particulate pollution (pm 10) in microgram per cubic meter -->
     <defs>
      <path d="M 18.109375 8.203125 
L 18.109375 -20.796875 
L 9.078125 -20.796875 
L 9.078125 54.6875 
L 18.109375 54.6875 
L 18.109375 46.390625 
Q 20.953125 51.265625 25.265625 53.625 
Q 29.59375 56 35.59375 56 
Q 45.5625 56 51.78125 48.09375 
Q 58.015625 40.1875 58.015625 27.296875 
Q 58.015625 14.40625 51.78125 6.484375 
Q 45.5625 -1.421875 35.59375 -1.421875 
Q 29.59375 -1.421875 25.265625 0.953125 
Q 20.953125 3.328125 18.109375 8.203125 
z
M 48.6875 27.296875 
Q 48.6875 37.203125 44.609375 42.84375 
Q 40.53125 48.484375 33.40625 48.484375 
Q 26.265625 48.484375 22.1875 42.84375 
Q 18.109375 37.203125 18.109375 27.296875 
Q 18.109375 17.390625 22.1875 11.75 
Q 26.265625 6.109375 33.40625 6.109375 
Q 40.53125 6.109375 44.609375 11.75 
Q 48.6875 17.390625 48.6875 27.296875 
z
" id="DejaVuSans-70"/>
      <path d="M 34.28125 27.484375 
Q 23.390625 27.484375 19.1875 25 
Q 14.984375 22.515625 14.984375 16.5 
Q 14.984375 11.71875 18.140625 8.90625 
Q 21.296875 6.109375 26.703125 6.109375 
Q 34.1875 6.109375 38.703125 11.40625 
Q 43.21875 16.703125 43.21875 25.484375 
L 43.21875 27.484375 
z
M 52.203125 31.203125 
L 52.203125 0 
L 43.21875 0 
L 43.21875 8.296875 
Q 40.140625 3.328125 35.546875 0.953125 
Q 30.953125 -1.421875 24.3125 -1.421875 
Q 15.921875 -1.421875 10.953125 3.296875 
Q 6 8.015625 6 15.921875 
Q 6 25.140625 12.171875 29.828125 
Q 18.359375 34.515625 30.609375 34.515625 
L 43.21875 34.515625 
L 43.21875 35.40625 
Q 43.21875 41.609375 39.140625 45 
Q 35.0625 48.390625 27.6875 48.390625 
Q 23 48.390625 18.546875 47.265625 
Q 14.109375 46.140625 10.015625 43.890625 
L 10.015625 52.203125 
Q 14.9375 54.109375 19.578125 55.046875 
Q 24.21875 56 28.609375 56 
Q 40.484375 56 46.34375 49.84375 
Q 52.203125 43.703125 52.203125 31.203125 
z
" id="DejaVuSans-61"/>
      <path d="M 41.109375 46.296875 
Q 39.59375 47.171875 37.8125 47.578125 
Q 36.03125 48 33.890625 48 
Q 26.265625 48 22.1875 43.046875 
Q 18.109375 38.09375 18.109375 28.8125 
L 18.109375 0 
L 9.078125 0 
L 9.078125 54.6875 
L 18.109375 54.6875 
L 18.109375 46.1875 
Q 20.953125 51.171875 25.484375 53.578125 
Q 30.03125 56 36.53125 56 
Q 37.453125 56 38.578125 55.875 
Q 39.703125 55.765625 41.0625 55.515625 
z
" id="DejaVuSans-72"/>
      <path d="M 48.78125 52.59375 
L 48.78125 44.1875 
Q 44.96875 46.296875 41.140625 47.34375 
Q 37.3125 48.390625 33.40625 48.390625 
Q 24.65625 48.390625 19.8125 42.84375 
Q 14.984375 37.3125 14.984375 27.296875 
Q 14.984375 17.28125 19.8125 11.734375 
Q 24.65625 6.203125 33.40625 6.203125 
Q 37.3125 6.203125 41.140625 7.25 
Q 44.96875 8.296875 48.78125 10.40625 
L 48.78125 2.09375 
Q 45.015625 0.34375 40.984375 -0.53125 
Q 36.96875 -1.421875 32.421875 -1.421875 
Q 20.0625 -1.421875 12.78125 6.34375 
Q 5.515625 14.109375 5.515625 27.296875 
Q 5.515625 40.671875 12.859375 48.328125 
Q 20.21875 56 33.015625 56 
Q 37.15625 56 41.109375 55.140625 
Q 45.0625 54.296875 48.78125 52.59375 
z
" id="DejaVuSans-63"/>
      <path d="M 8.5 21.578125 
L 8.5 54.6875 
L 17.484375 54.6875 
L 17.484375 21.921875 
Q 17.484375 14.15625 20.5 10.265625 
Q 23.53125 6.390625 29.59375 6.390625 
Q 36.859375 6.390625 41.078125 11.03125 
Q 45.3125 15.671875 45.3125 23.6875 
L 45.3125 54.6875 
L 54.296875 54.6875 
L 54.296875 0 
L 45.3125 0 
L 45.3125 8.40625 
Q 42.046875 3.421875 37.71875 1 
Q 33.40625 -1.421875 27.6875 -1.421875 
Q 18.265625 -1.421875 13.375 4.4375 
Q 8.5 10.296875 8.5 21.578125 
z
M 31.109375 56 
z
" id="DejaVuSans-75"/>
      <path d="M 56.203125 29.59375 
L 56.203125 25.203125 
L 14.890625 25.203125 
Q 15.484375 15.921875 20.484375 11.0625 
Q 25.484375 6.203125 34.421875 6.203125 
Q 39.59375 6.203125 44.453125 7.46875 
Q 49.3125 8.734375 54.109375 11.28125 
L 54.109375 2.78125 
Q 49.265625 0.734375 44.1875 -0.34375 
Q 39.109375 -1.421875 33.890625 -1.421875 
Q 20.796875 -1.421875 13.15625 6.1875 
Q 5.515625 13.8125 5.515625 26.8125 
Q 5.515625 40.234375 12.765625 48.109375 
Q 20.015625 56 32.328125 56 
Q 43.359375 56 49.78125 48.890625 
Q 56.203125 41.796875 56.203125 29.59375 
z
M 47.21875 32.234375 
Q 47.125 39.59375 43.09375 43.984375 
Q 39.0625 48.390625 32.421875 48.390625 
Q 24.90625 48.390625 20.390625 44.140625 
Q 15.875 39.890625 15.1875 32.171875 
z
" id="DejaVuSans-65"/>
      <path d="M 30.609375 48.390625 
Q 23.390625 48.390625 19.1875 42.75 
Q 14.984375 37.109375 14.984375 27.296875 
Q 14.984375 17.484375 19.15625 11.84375 
Q 23.34375 6.203125 30.609375 6.203125 
Q 37.796875 6.203125 41.984375 11.859375 
Q 46.1875 17.53125 46.1875 27.296875 
Q 46.1875 37.015625 41.984375 42.703125 
Q 37.796875 48.390625 30.609375 48.390625 
z
M 30.609375 56 
Q 42.328125 56 49.015625 48.375 
Q 55.71875 40.765625 55.71875 27.296875 
Q 55.71875 13.875 49.015625 6.21875 
Q 42.328125 -1.421875 30.609375 -1.421875 
Q 18.84375 -1.421875 12.171875 6.21875 
Q 5.515625 13.875 5.515625 27.296875 
Q 5.515625 40.765625 12.171875 48.375 
Q 18.84375 56 30.609375 56 
z
" id="DejaVuSans-6f"/>
      <path d="M 54.890625 33.015625 
L 54.890625 0 
L 45.90625 0 
L 45.90625 32.71875 
Q 45.90625 40.484375 42.875 44.328125 
Q 39.84375 48.1875 33.796875 48.1875 
Q 26.515625 48.1875 22.3125 43.546875 
Q 18.109375 38.921875 18.109375 30.90625 
L 18.109375 0 
L 9.078125 0 
L 9.078125 54.6875 
L 18.109375 54.6875 
L 18.109375 46.1875 
Q 21.34375 51.125 25.703125 53.5625 
Q 30.078125 56 35.796875 56 
Q 45.21875 56 50.046875 50.171875 
Q 54.890625 44.34375 54.890625 33.015625 
z
" id="DejaVuSans-6e"/>
      <path d="M 31 75.875 
Q 24.46875 64.65625 21.28125 53.65625 
Q 18.109375 42.671875 18.109375 31.390625 
Q 18.109375 20.125 21.3125 9.0625 
Q 24.515625 -2 31 -13.1875 
L 23.1875 -13.1875 
Q 15.875 -1.703125 12.234375 9.375 
Q 8.59375 20.453125 8.59375 31.390625 
Q 8.59375 42.28125 12.203125 53.3125 
Q 15.828125 64.359375 23.1875 75.875 
z
" id="DejaVuSans-28"/>
      <path d="M 8.015625 75.875 
L 15.828125 75.875 
Q 23.140625 64.359375 26.78125 53.3125 
Q 30.421875 42.28125 30.421875 31.390625 
Q 30.421875 20.453125 26.78125 9.375 
Q 23.140625 -1.703125 15.828125 -13.1875 
L 8.015625 -13.1875 
Q 14.5 -2 17.703125 9.0625 
Q 20.90625 20.125 20.90625 31.390625 
Q 20.90625 42.671875 17.703125 53.65625 
Q 14.5 64.65625 8.015625 75.875 
z
" id="DejaVuSans-29"/>
      <path d="M 45.40625 27.984375 
Q 45.40625 37.75 41.375 43.109375 
Q 37.359375 48.484375 30.078125 48.484375 
Q 22.859375 48.484375 18.828125 43.109375 
Q 14.796875 37.75 14.796875 27.984375 
Q 14.796875 18.265625 18.828125 12.890625 
Q 22.859375 7.515625 30.078125 7.515625 
Q 37.359375 7.515625 41.375 12.890625 
Q 45.40625 18.265625 45.40625 27.984375 
z
M 54.390625 6.78125 
Q 54.390625 -7.171875 48.1875 -13.984375 
Q 42 -20.796875 29.203125 -20.796875 
Q 24.46875 -20.796875 20.265625 -20.09375 
Q 16.0625 -19.390625 12.109375 -17.921875 
L 12.109375 -9.1875 
Q 16.0625 -11.328125 19.921875 -12.34375 
Q 23.78125 -13.375 27.78125 -13.375 
Q 36.625 -13.375 41.015625 -8.765625 
Q 45.40625 -4.15625 45.40625 5.171875 
L 45.40625 9.625 
Q 42.625 4.78125 38.28125 2.390625 
Q 33.9375 0 27.875 0 
Q 17.828125 0 11.671875 7.65625 
Q 5.515625 15.328125 5.515625 27.984375 
Q 5.515625 40.671875 11.671875 48.328125 
Q 17.828125 56 27.875 56 
Q 33.9375 56 38.28125 53.609375 
Q 42.625 51.21875 45.40625 46.390625 
L 45.40625 54.6875 
L 54.390625 54.6875 
z
" id="DejaVuSans-67"/>
      <path d="M 48.6875 27.296875 
Q 48.6875 37.203125 44.609375 42.84375 
Q 40.53125 48.484375 33.40625 48.484375 
Q 26.265625 48.484375 22.1875 42.84375 
Q 18.109375 37.203125 18.109375 27.296875 
Q 18.109375 17.390625 22.1875 11.75 
Q 26.265625 6.109375 33.40625 6.109375 
Q 40.53125 6.109375 44.609375 11.75 
Q 48.6875 17.390625 48.6875 27.296875 
z
M 18.109375 46.390625 
Q 20.953125 51.265625 25.265625 53.625 
Q 29.59375 56 35.59375 56 
Q 45.5625 56 51.78125 48.09375 
Q 58.015625 40.1875 58.015625 27.296875 
Q 58.015625 14.40625 51.78125 6.484375 
Q 45.5625 -1.421875 35.59375 -1.421875 
Q 29.59375 -1.421875 25.265625 0.953125 
Q 20.953125 3.328125 18.109375 8.203125 
L 18.109375 0 
L 9.078125 0 
L 9.078125 75.984375 
L 18.109375 75.984375 
z
" id="DejaVuSans-62"/>
     </defs>
     <g transform="translate(492.541313 1373.01475)scale(0.168 -0.168)">
      <use xlink:href="#DejaVuSans-70"/>
      <use x="63.476562" xlink:href="#DejaVuSans-61"/>
      <use x="124.755859" xlink:href="#DejaVuSans-72"/>
      <use x="165.869141" xlink:href="#DejaVuSans-74"/>
      <use x="205.078125" xlink:href="#DejaVuSans-69"/>
      <use x="232.861328" xlink:href="#DejaVuSans-63"/>
      <use x="287.841797" xlink:href="#DejaVuSans-75"/>
      <use x="351.220703" xlink:href="#DejaVuSans-6c"/>
      <use x="379.003906" xlink:href="#DejaVuSans-61"/>
      <use x="440.283203" xlink:href="#DejaVuSans-74"/>
      <use x="479.492188" xlink:href="#DejaVuSans-65"/>
      <use x="541.015625" xlink:href="#DejaVuSans-20"/>
      <use x="572.802734" xlink:href="#DejaVuSans-70"/>
      <use x="636.279297" xlink:href="#DejaVuSans-6f"/>
      <use x="697.460938" xlink:href="#DejaVuSans-6c"/>
      <use x="725.244141" xlink:href="#DejaVuSans-6c"/>
      <use x="753.027344" xlink:href="#DejaVuSans-75"/>
      <use x="816.40625" xlink:href="#DejaVuSans-74"/>
      <use x="855.615234" xlink:href="#DejaVuSans-69"/>
      <use x="883.398438" xlink:href="#DejaVuSans-6f"/>
      <use x="944.580078" xlink:href="#DejaVuSans-6e"/>
      <use x="1007.958984" xlink:href="#DejaVuSans-20"/>
      <use x="1039.746094" xlink:href="#DejaVuSans-28"/>
      <use x="1078.759766" xlink:href="#DejaVuSans-70"/>
      <use x="1142.236328" xlink:href="#DejaVuSans-6d"/>
      <use x="1239.648438" xlink:href="#DejaVuSans-20"/>
      <use x="1271.435547" xlink:href="#DejaVuSans-31"/>
      <use x="1335.058594" xlink:href="#DejaVuSans-30"/>
      <use x="1398.681641" xlink:href="#DejaVuSans-29"/>
      <use x="1437.695312" xlink:href="#DejaVuSans-20"/>
      <use x="1469.482422" xlink:href="#DejaVuSans-69"/>
      <use x="1497.265625" xlink:href="#DejaVuSans-6e"/>
      <use x="1560.644531" xlink:href="#DejaVuSans-20"/>
      <use x="1592.431641" xlink:href="#DejaVuSans-6d"/>
      <use x="1689.84375" xlink:href="#DejaVuSans-69"/>
      <use x="1717.626953" xlink:href="#DejaVuSans-63"/>
      <use x="1772.607422" xlink:href="#DejaVuSans-72"/>
      <use x="1813.689453" xlink:href="#DejaVuSans-6f"/>
      <use x="1874.871094" xlink:href="#DejaVuSans-67"/>
      <use x="1938.347656" xlink:href="#DejaVuSans-72"/>
      <use x="1979.460938" xlink:href="#DejaVuSans-61"/>
      <use x="2040.740234" xlink:href="#DejaVuSans-6d"/>
      <use x="2138.152344" xlink:href="#DejaVuSans-20"/>
      <use x="2169.939453" xlink:href="#DejaVuSans-70"/>
      <use x="2233.416016" xlink:href="#DejaVuSans-65"/>
      <use x="2294.939453" xlink:href="#DejaVuSans-72"/>
      <use x="2336.052734" xlink:href="#DejaVuSans-20"/>
      <use x="2367.839844" xlink:href="#DejaVuSans-63"/>
      <use x="2422.820312" xlink:href="#DejaVuSans-75"/>
      <use x="2486.199219" xlink:href="#DejaVuSans-62"/>
      <use x="2549.675781" xlink:href="#DejaVuSans-69"/>
      <use x="2577.458984" xlink:href="#DejaVuSans-63"/>
      <use x="2632.439453" xlink:href="#DejaVuSans-20"/>
      <use x="2664.226562" xlink:href="#DejaVuSans-6d"/>
      <use x="2761.638672" xlink:href="#DejaVuSans-65"/>
      <use x="2823.162109" xlink:href="#DejaVuSans-74"/>
      <use x="2862.371094" xlink:href="#DejaVuSans-65"/>
      <use x="2923.894531" xlink:href="#DejaVuSans-72"/>
     </g>
    </g>
   </g>
   <g id="matplotlib.axis_2">
    <g id="ytick_1">
     <g id="line2d_17">
      <path clip-path="url(#p6228b506b5)" d="M 115.2 1280.88 
L 1368 1280.88 
" style="fill:none;stroke:#ffffff;stroke-dasharray:1,1.65;stroke-dashoffset:0;"/>
     </g>
     <g id="line2d_18"/>
     <g id="text_9">
      <!-- Gwalior, India -->
      <defs>
       <path d="M 59.515625 10.40625 
L 59.515625 29.984375 
L 43.40625 29.984375 
L 43.40625 38.09375 
L 69.28125 38.09375 
L 69.28125 6.78125 
Q 63.578125 2.734375 56.6875 0.65625 
Q 49.8125 -1.421875 42 -1.421875 
Q 24.90625 -1.421875 15.25 8.5625 
Q 5.609375 18.5625 5.609375 36.375 
Q 5.609375 54.25 15.25 64.234375 
Q 24.90625 74.21875 42 74.21875 
Q 49.125 74.21875 55.546875 72.453125 
Q 61.96875 70.703125 67.390625 67.28125 
L 67.390625 56.78125 
Q 61.921875 61.421875 55.765625 63.765625 
Q 49.609375 66.109375 42.828125 66.109375 
Q 29.4375 66.109375 22.71875 58.640625 
Q 16.015625 51.171875 16.015625 36.375 
Q 16.015625 21.625 22.71875 14.15625 
Q 29.4375 6.6875 42.828125 6.6875 
Q 48.046875 6.6875 52.140625 7.59375 
Q 56.25 8.5 59.515625 10.40625 
z
" id="DejaVuSans-47"/>
       <path d="M 4.203125 54.6875 
L 13.1875 54.6875 
L 24.421875 12.015625 
L 35.59375 54.6875 
L 46.1875 54.6875 
L 57.421875 12.015625 
L 68.609375 54.6875 
L 77.59375 54.6875 
L 63.28125 0 
L 52.6875 0 
L 40.921875 44.828125 
L 29.109375 0 
L 18.5 0 
z
" id="DejaVuSans-77"/>
       <path d="M 11.71875 12.40625 
L 22.015625 12.40625 
L 22.015625 4 
L 14.015625 -11.625 
L 7.71875 -11.625 
L 11.71875 4 
z
" id="DejaVuSans-2c"/>
       <path d="M 9.8125 72.90625 
L 19.671875 72.90625 
L 19.671875 0 
L 9.8125 0 
z
" id="DejaVuSans-49"/>
       <path d="M 45.40625 46.390625 
L 45.40625 75.984375 
L 54.390625 75.984375 
L 54.390625 0 
L 45.40625 0 
L 45.40625 8.203125 
Q 42.578125 3.328125 38.25 0.953125 
Q 33.9375 -1.421875 27.875 -1.421875 
Q 17.96875 -1.421875 11.734375 6.484375 
Q 5.515625 14.40625 5.515625 27.296875 
Q 5.515625 40.1875 11.734375 48.09375 
Q 17.96875 56 27.875 56 
Q 33.9375 56 38.25 53.625 
Q 42.578125 51.265625 45.40625 46.390625 
z
M 14.796875 27.296875 
Q 14.796875 17.390625 18.875 11.75 
Q 22.953125 6.109375 30.078125 6.109375 
Q 37.203125 6.109375 41.296875 11.75 
Q 45.40625 17.390625 45.40625 27.296875 
Q 45.40625 37.203125 41.296875 42.84375 
Q 37.203125 48.484375 30.078125 48.484375 
Q 22.953125 48.484375 18.875 42.84375 
Q 14.796875 37.203125 14.796875 27.296875 
z
" id="DejaVuSans-64"/>
      </defs>
      <g transform="translate(15.465312 1286.198906)scale(0.14 -0.14)">
       <use xlink:href="#DejaVuSans-47"/>
       <use x="77.490234" xlink:href="#DejaVuSans-77"/>
       <use x="159.277344" xlink:href="#DejaVuSans-61"/>
       <use x="220.556641" xlink:href="#DejaVuSans-6c"/>
       <use x="248.339844" xlink:href="#DejaVuSans-69"/>
       <use x="276.123047" xlink:href="#DejaVuSans-6f"/>
       <use x="337.304688" xlink:href="#DejaVuSans-72"/>
       <use x="378.417969" xlink:href="#DejaVuSans-2c"/>
       <use x="410.205078" xlink:href="#DejaVuSans-20"/>
       <use x="441.992188" xlink:href="#DejaVuSans-49"/>
       <use x="471.484375" xlink:href="#DejaVuSans-6e"/>
       <use x="534.863281" xlink:href="#DejaVuSans-64"/>
       <use x="598.339844" xlink:href="#DejaVuSans-69"/>
       <use x="626.123047" xlink:href="#DejaVuSans-61"/>
      </g>
     </g>
    </g>
    <g id="ytick_2">
     <g id="line2d_19">
      <path clip-path="url(#p6228b506b5)" d="M 115.2 1164.24 
L 1368 1164.24 
" style="fill:none;stroke:#ffffff;stroke-dasharray:1,1.65;stroke-dashoffset:0;"/>
     </g>
     <g id="line2d_20"/>
     <g id="text_10">
      <!-- Mazar-e Sharif, Afghanistan -->
      <defs>
       <path d="M 9.8125 72.90625 
L 24.515625 72.90625 
L 43.109375 23.296875 
L 61.8125 72.90625 
L 76.515625 72.90625 
L 76.515625 0 
L 66.890625 0 
L 66.890625 64.015625 
L 48.09375 14.015625 
L 38.1875 14.015625 
L 19.390625 64.015625 
L 19.390625 0 
L 9.8125 0 
z
" id="DejaVuSans-4d"/>
       <path d="M 5.515625 54.6875 
L 48.1875 54.6875 
L 48.1875 46.484375 
L 14.40625 7.171875 
L 48.1875 7.171875 
L 48.1875 0 
L 4.296875 0 
L 4.296875 8.203125 
L 38.09375 47.515625 
L 5.515625 47.515625 
z
" id="DejaVuSans-7a"/>
       <path d="M 4.890625 31.390625 
L 31.203125 31.390625 
L 31.203125 23.390625 
L 4.890625 23.390625 
z
" id="DejaVuSans-2d"/>
       <path d="M 53.515625 70.515625 
L 53.515625 60.890625 
Q 47.90625 63.578125 42.921875 64.890625 
Q 37.9375 66.21875 33.296875 66.21875 
Q 25.25 66.21875 20.875 63.09375 
Q 16.5 59.96875 16.5 54.203125 
Q 16.5 49.359375 19.40625 46.890625 
Q 22.3125 44.4375 30.421875 42.921875 
L 36.375 41.703125 
Q 47.40625 39.59375 52.65625 34.296875 
Q 57.90625 29 57.90625 20.125 
Q 57.90625 9.515625 50.796875 4.046875 
Q 43.703125 -1.421875 29.984375 -1.421875 
Q 24.8125 -1.421875 18.96875 -0.25 
Q 13.140625 0.921875 6.890625 3.21875 
L 6.890625 13.375 
Q 12.890625 10.015625 18.65625 8.296875 
Q 24.421875 6.59375 29.984375 6.59375 
Q 38.421875 6.59375 43.015625 9.90625 
Q 47.609375 13.234375 47.609375 19.390625 
Q 47.609375 24.75 44.3125 27.78125 
Q 41.015625 30.8125 33.5 32.328125 
L 27.484375 33.5 
Q 16.453125 35.6875 11.515625 40.375 
Q 6.59375 45.0625 6.59375 53.421875 
Q 6.59375 63.09375 13.40625 68.65625 
Q 20.21875 74.21875 32.171875 74.21875 
Q 37.3125 74.21875 42.625 73.28125 
Q 47.953125 72.359375 53.515625 70.515625 
z
" id="DejaVuSans-53"/>
       <path d="M 54.890625 33.015625 
L 54.890625 0 
L 45.90625 0 
L 45.90625 32.71875 
Q 45.90625 40.484375 42.875 44.328125 
Q 39.84375 48.1875 33.796875 48.1875 
Q 26.515625 48.1875 22.3125 43.546875 
Q 18.109375 38.921875 18.109375 30.90625 
L 18.109375 0 
L 9.078125 0 
L 9.078125 75.984375 
L 18.109375 75.984375 
L 18.109375 46.1875 
Q 21.34375 51.125 25.703125 53.5625 
Q 30.078125 56 35.796875 56 
Q 45.21875 56 50.046875 50.171875 
Q 54.890625 44.34375 54.890625 33.015625 
z
" id="DejaVuSans-68"/>
       <path d="M 37.109375 75.984375 
L 37.109375 68.5 
L 28.515625 68.5 
Q 23.6875 68.5 21.796875 66.546875 
Q 19.921875 64.59375 19.921875 59.515625 
L 19.921875 54.6875 
L 34.71875 54.6875 
L 34.71875 47.703125 
L 19.921875 47.703125 
L 19.921875 0 
L 10.890625 0 
L 10.890625 47.703125 
L 2.296875 47.703125 
L 2.296875 54.6875 
L 10.890625 54.6875 
L 10.890625 58.5 
Q 10.890625 67.625 15.140625 71.796875 
Q 19.390625 75.984375 28.609375 75.984375 
z
" id="DejaVuSans-66"/>
       <path d="M 34.1875 63.1875 
L 20.796875 26.90625 
L 47.609375 26.90625 
z
M 28.609375 72.90625 
L 39.796875 72.90625 
L 67.578125 0 
L 57.328125 0 
L 50.6875 18.703125 
L 17.828125 18.703125 
L 11.1875 0 
L 0.78125 0 
z
" id="DejaVuSans-41"/>
       <path d="M 44.28125 53.078125 
L 44.28125 44.578125 
Q 40.484375 46.53125 36.375 47.5 
Q 32.28125 48.484375 27.875 48.484375 
Q 21.1875 48.484375 17.84375 46.4375 
Q 14.5 44.390625 14.5 40.28125 
Q 14.5 37.15625 16.890625 35.375 
Q 19.28125 33.59375 26.515625 31.984375 
L 29.59375 31.296875 
Q 39.15625 29.25 43.1875 25.515625 
Q 47.21875 21.78125 47.21875 15.09375 
Q 47.21875 7.46875 41.1875 3.015625 
Q 35.15625 -1.421875 24.609375 -1.421875 
Q 20.21875 -1.421875 15.453125 -0.5625 
Q 10.6875 0.296875 5.421875 2 
L 5.421875 11.28125 
Q 10.40625 8.6875 15.234375 7.390625 
Q 20.0625 6.109375 24.8125 6.109375 
Q 31.15625 6.109375 34.5625 8.28125 
Q 37.984375 10.453125 37.984375 14.40625 
Q 37.984375 18.0625 35.515625 20.015625 
Q 33.0625 21.96875 24.703125 23.78125 
L 21.578125 24.515625 
Q 13.234375 26.265625 9.515625 29.90625 
Q 5.8125 33.546875 5.8125 39.890625 
Q 5.8125 47.609375 11.28125 51.796875 
Q 16.75 56 26.8125 56 
Q 31.78125 56 36.171875 55.265625 
Q 40.578125 54.546875 44.28125 53.078125 
z
" id="DejaVuSans-73"/>
      </defs>
      <g transform="translate(-82.388125 1169.558906)scale(0.14 -0.14)">
       <use xlink:href="#DejaVuSans-4d"/>
       <use x="86.279297" xlink:href="#DejaVuSans-61"/>
       <use x="147.558594" xlink:href="#DejaVuSans-7a"/>
       <use x="200.048828" xlink:href="#DejaVuSans-61"/>
       <use x="261.328125" xlink:href="#DejaVuSans-72"/>
       <use x="302.347656" xlink:href="#DejaVuSans-2d"/>
       <use x="338.431641" xlink:href="#DejaVuSans-65"/>
       <use x="399.955078" xlink:href="#DejaVuSans-20"/>
       <use x="431.742188" xlink:href="#DejaVuSans-53"/>
       <use x="495.21875" xlink:href="#DejaVuSans-68"/>
       <use x="558.597656" xlink:href="#DejaVuSans-61"/>
       <use x="619.876953" xlink:href="#DejaVuSans-72"/>
       <use x="660.990234" xlink:href="#DejaVuSans-69"/>
       <use x="688.773438" xlink:href="#DejaVuSans-66"/>
       <use x="723.978516" xlink:href="#DejaVuSans-2c"/>
       <use x="755.765625" xlink:href="#DejaVuSans-20"/>
       <use x="787.552734" xlink:href="#DejaVuSans-41"/>
       <use x="855.914062" xlink:href="#DejaVuSans-66"/>
       <use x="891.119141" xlink:href="#DejaVuSans-67"/>
       <use x="954.595703" xlink:href="#DejaVuSans-68"/>
       <use x="1017.974609" xlink:href="#DejaVuSans-61"/>
       <use x="1079.253906" xlink:href="#DejaVuSans-6e"/>
       <use x="1142.632812" xlink:href="#DejaVuSans-69"/>
       <use x="1170.416016" xlink:href="#DejaVuSans-73"/>
       <use x="1222.515625" xlink:href="#DejaVuSans-74"/>
       <use x="1261.724609" xlink:href="#DejaVuSans-61"/>
       <use x="1323.003906" xlink:href="#DejaVuSans-6e"/>
      </g>
     </g>
    </g>
    <g id="ytick_3">
     <g id="line2d_21">
      <path clip-path="url(#p6228b506b5)" d="M 115.2 1047.6 
L 1368 1047.6 
" style="fill:none;stroke:#ffffff;stroke-dasharray:1,1.65;stroke-dashoffset:0;"/>
     </g>
     <g id="line2d_22"/>
     <g id="text_11">
      <!-- Al Jubail, Saudi Arabia -->
      <defs>
       <path d="M 9.8125 72.90625 
L 19.671875 72.90625 
L 19.671875 5.078125 
Q 19.671875 -8.109375 14.671875 -14.0625 
Q 9.671875 -20.015625 -1.421875 -20.015625 
L -5.171875 -20.015625 
L -5.171875 -11.71875 
L -2.09375 -11.71875 
Q 4.4375 -11.71875 7.125 -8.046875 
Q 9.8125 -4.390625 9.8125 5.078125 
z
" id="DejaVuSans-4a"/>
      </defs>
      <g transform="translate(-42.197187 1052.918906)scale(0.14 -0.14)">
       <use xlink:href="#DejaVuSans-41"/>
       <use x="68.408203" xlink:href="#DejaVuSans-6c"/>
       <use x="96.191406" xlink:href="#DejaVuSans-20"/>
       <use x="127.978516" xlink:href="#DejaVuSans-4a"/>
       <use x="157.470703" xlink:href="#DejaVuSans-75"/>
       <use x="220.849609" xlink:href="#DejaVuSans-62"/>
       <use x="284.326172" xlink:href="#DejaVuSans-61"/>
       <use x="345.605469" xlink:href="#DejaVuSans-69"/>
       <use x="373.388672" xlink:href="#DejaVuSans-6c"/>
       <use x="401.171875" xlink:href="#DejaVuSans-2c"/>
       <use x="432.958984" xlink:href="#DejaVuSans-20"/>
       <use x="464.746094" xlink:href="#DejaVuSans-53"/>
       <use x="528.222656" xlink:href="#DejaVuSans-61"/>
       <use x="589.501953" xlink:href="#DejaVuSans-75"/>
       <use x="652.880859" xlink:href="#DejaVuSans-64"/>
       <use x="716.357422" xlink:href="#DejaVuSans-69"/>
       <use x="744.140625" xlink:href="#DejaVuSans-20"/>
       <use x="775.927734" xlink:href="#DejaVuSans-41"/>
       <use x="844.335938" xlink:href="#DejaVuSans-72"/>
       <use x="885.449219" xlink:href="#DejaVuSans-61"/>
       <use x="946.728516" xlink:href="#DejaVuSans-62"/>
       <use x="1010.205078" xlink:href="#DejaVuSans-69"/>
       <use x="1037.988281" xlink:href="#DejaVuSans-61"/>
      </g>
     </g>
    </g>
    <g id="ytick_4">
     <g id="line2d_23">
      <path clip-path="url(#p6228b506b5)" d="M 115.2 930.96 
L 1368 930.96 
" style="fill:none;stroke:#ffffff;stroke-dasharray:1,1.65;stroke-dashoffset:0;"/>
     </g>
     <g id="line2d_24"/>
     <g id="text_12">
      <!-- Riyadh, Saudi Arabia -->
      <defs>
       <path d="M 44.390625 34.1875 
Q 47.5625 33.109375 50.5625 29.59375 
Q 53.5625 26.078125 56.59375 19.921875 
L 66.609375 0 
L 56 0 
L 46.6875 18.703125 
Q 43.0625 26.03125 39.671875 28.421875 
Q 36.28125 30.8125 30.421875 30.8125 
L 19.671875 30.8125 
L 19.671875 0 
L 9.8125 0 
L 9.8125 72.90625 
L 32.078125 72.90625 
Q 44.578125 72.90625 50.734375 67.671875 
Q 56.890625 62.453125 56.890625 51.90625 
Q 56.890625 45.015625 53.6875 40.46875 
Q 50.484375 35.9375 44.390625 34.1875 
z
M 19.671875 64.796875 
L 19.671875 38.921875 
L 32.078125 38.921875 
Q 39.203125 38.921875 42.84375 42.21875 
Q 46.484375 45.515625 46.484375 51.90625 
Q 46.484375 58.296875 42.84375 61.546875 
Q 39.203125 64.796875 32.078125 64.796875 
z
" id="DejaVuSans-52"/>
       <path d="M 32.171875 -5.078125 
Q 28.375 -14.84375 24.75 -17.8125 
Q 21.140625 -20.796875 15.09375 -20.796875 
L 7.90625 -20.796875 
L 7.90625 -13.28125 
L 13.1875 -13.28125 
Q 16.890625 -13.28125 18.9375 -11.515625 
Q 21 -9.765625 23.484375 -3.21875 
L 25.09375 0.875 
L 2.984375 54.6875 
L 12.5 54.6875 
L 29.59375 11.921875 
L 46.6875 54.6875 
L 56.203125 54.6875 
z
" id="DejaVuSans-79"/>
      </defs>
      <g transform="translate(-34.27625 936.278906)scale(0.14 -0.14)">
       <use xlink:href="#DejaVuSans-52"/>
       <use x="69.482422" xlink:href="#DejaVuSans-69"/>
       <use x="97.265625" xlink:href="#DejaVuSans-79"/>
       <use x="156.445312" xlink:href="#DejaVuSans-61"/>
       <use x="217.724609" xlink:href="#DejaVuSans-64"/>
       <use x="281.201172" xlink:href="#DejaVuSans-68"/>
       <use x="344.580078" xlink:href="#DejaVuSans-2c"/>
       <use x="376.367188" xlink:href="#DejaVuSans-20"/>
       <use x="408.154297" xlink:href="#DejaVuSans-53"/>
       <use x="471.630859" xlink:href="#DejaVuSans-61"/>
       <use x="532.910156" xlink:href="#DejaVuSans-75"/>
       <use x="596.289062" xlink:href="#DejaVuSans-64"/>
       <use x="659.765625" xlink:href="#DejaVuSans-69"/>
       <use x="687.548828" xlink:href="#DejaVuSans-20"/>
       <use x="719.335938" xlink:href="#DejaVuSans-41"/>
       <use x="787.744141" xlink:href="#DejaVuSans-72"/>
       <use x="828.857422" xlink:href="#DejaVuSans-61"/>
       <use x="890.136719" xlink:href="#DejaVuSans-62"/>
       <use x="953.613281" xlink:href="#DejaVuSans-69"/>
       <use x="981.396484" xlink:href="#DejaVuSans-61"/>
      </g>
     </g>
    </g>
    <g id="ytick_5">
     <g id="line2d_25">
      <path clip-path="url(#p6228b506b5)" d="M 115.2 814.32 
L 1368 814.32 
" style="fill:none;stroke:#ffffff;stroke-dasharray:1,1.65;stroke-dashoffset:0;"/>
     </g>
     <g id="line2d_26"/>
     <g id="text_13">
      <!-- Aba, Nigeria -->
      <defs>
       <path d="M 9.8125 72.90625 
L 23.09375 72.90625 
L 55.421875 11.921875 
L 55.421875 72.90625 
L 64.984375 72.90625 
L 64.984375 0 
L 51.703125 0 
L 19.390625 60.984375 
L 19.390625 0 
L 9.8125 0 
z
" id="DejaVuSans-4e"/>
      </defs>
      <g transform="translate(25.667812 819.638906)scale(0.14 -0.14)">
       <use xlink:href="#DejaVuSans-41"/>
       <use x="68.408203" xlink:href="#DejaVuSans-62"/>
       <use x="131.884766" xlink:href="#DejaVuSans-61"/>
       <use x="193.164062" xlink:href="#DejaVuSans-2c"/>
       <use x="224.951172" xlink:href="#DejaVuSans-20"/>
       <use x="256.738281" xlink:href="#DejaVuSans-4e"/>
       <use x="331.542969" xlink:href="#DejaVuSans-69"/>
       <use x="359.326172" xlink:href="#DejaVuSans-67"/>
       <use x="422.802734" xlink:href="#DejaVuSans-65"/>
       <use x="484.326172" xlink:href="#DejaVuSans-72"/>
       <use x="525.439453" xlink:href="#DejaVuSans-69"/>
       <use x="553.222656" xlink:href="#DejaVuSans-61"/>
      </g>
     </g>
    </g>
    <g id="ytick_6">
     <g id="line2d_27">
      <path clip-path="url(#p6228b506b5)" d="M 115.2 697.68 
L 1368 697.68 
" style="fill:none;stroke:#ffffff;stroke-dasharray:1,1.65;stroke-dashoffset:0;"/>
     </g>
     <g id="line2d_28"/>
     <g id="text_14">
      <!-- Kaduna, Nigeria -->
      <defs>
       <path d="M 9.8125 72.90625 
L 19.671875 72.90625 
L 19.671875 42.09375 
L 52.390625 72.90625 
L 65.09375 72.90625 
L 28.90625 38.921875 
L 67.671875 0 
L 54.6875 0 
L 19.671875 35.109375 
L 19.671875 0 
L 9.8125 0 
z
" id="DejaVuSans-4b"/>
      </defs>
      <g transform="translate(-0.258438 702.998906)scale(0.14 -0.14)">
       <use xlink:href="#DejaVuSans-4b"/>
       <use x="65.560547" xlink:href="#DejaVuSans-61"/>
       <use x="126.839844" xlink:href="#DejaVuSans-64"/>
       <use x="190.316406" xlink:href="#DejaVuSans-75"/>
       <use x="253.695312" xlink:href="#DejaVuSans-6e"/>
       <use x="317.074219" xlink:href="#DejaVuSans-61"/>
       <use x="378.353516" xlink:href="#DejaVuSans-2c"/>
       <use x="410.140625" xlink:href="#DejaVuSans-20"/>
       <use x="441.927734" xlink:href="#DejaVuSans-4e"/>
       <use x="516.732422" xlink:href="#DejaVuSans-69"/>
       <use x="544.515625" xlink:href="#DejaVuSans-67"/>
       <use x="607.992188" xlink:href="#DejaVuSans-65"/>
       <use x="669.515625" xlink:href="#DejaVuSans-72"/>
       <use x="710.628906" xlink:href="#DejaVuSans-69"/>
       <use x="738.412109" xlink:href="#DejaVuSans-61"/>
      </g>
     </g>
    </g>
    <g id="ytick_7">
     <g id="line2d_29">
      <path clip-path="url(#p6228b506b5)" d="M 115.2 581.04 
L 1368 581.04 
" style="fill:none;stroke:#ffffff;stroke-dasharray:1,1.65;stroke-dashoffset:0;"/>
     </g>
     <g id="line2d_30"/>
     <g id="text_15">
      <!-- Rawalpindi, Pakistan -->
      <defs>
       <path d="M 19.671875 64.796875 
L 19.671875 37.40625 
L 32.078125 37.40625 
Q 38.96875 37.40625 42.71875 40.96875 
Q 46.484375 44.53125 46.484375 51.125 
Q 46.484375 57.671875 42.71875 61.234375 
Q 38.96875 64.796875 32.078125 64.796875 
z
M 9.8125 72.90625 
L 32.078125 72.90625 
Q 44.34375 72.90625 50.609375 67.359375 
Q 56.890625 61.8125 56.890625 51.125 
Q 56.890625 40.328125 50.609375 34.8125 
Q 44.34375 29.296875 32.078125 29.296875 
L 19.671875 29.296875 
L 19.671875 0 
L 9.8125 0 
z
" id="DejaVuSans-50"/>
       <path d="M 9.078125 75.984375 
L 18.109375 75.984375 
L 18.109375 31.109375 
L 44.921875 54.6875 
L 56.390625 54.6875 
L 27.390625 29.109375 
L 57.625 0 
L 45.90625 0 
L 18.109375 26.703125 
L 18.109375 0 
L 9.078125 0 
z
" id="DejaVuSans-6b"/>
      </defs>
      <g transform="translate(-33.088438 586.358906)scale(0.14 -0.14)">
       <use xlink:href="#DejaVuSans-52"/>
       <use x="69.451172" xlink:href="#DejaVuSans-61"/>
       <use x="130.730469" xlink:href="#DejaVuSans-77"/>
       <use x="212.517578" xlink:href="#DejaVuSans-61"/>
       <use x="273.796875" xlink:href="#DejaVuSans-6c"/>
       <use x="301.580078" xlink:href="#DejaVuSans-70"/>
       <use x="365.056641" xlink:href="#DejaVuSans-69"/>
       <use x="392.839844" xlink:href="#DejaVuSans-6e"/>
       <use x="456.21875" xlink:href="#DejaVuSans-64"/>
       <use x="519.695312" xlink:href="#DejaVuSans-69"/>
       <use x="547.478516" xlink:href="#DejaVuSans-2c"/>
       <use x="579.265625" xlink:href="#DejaVuSans-20"/>
       <use x="611.052734" xlink:href="#DejaVuSans-50"/>
       <use x="671.292969" xlink:href="#DejaVuSans-61"/>
       <use x="732.572266" xlink:href="#DejaVuSans-6b"/>
       <use x="790.482422" xlink:href="#DejaVuSans-69"/>
       <use x="818.265625" xlink:href="#DejaVuSans-73"/>
       <use x="870.365234" xlink:href="#DejaVuSans-74"/>
       <use x="909.574219" xlink:href="#DejaVuSans-61"/>
       <use x="970.853516" xlink:href="#DejaVuSans-6e"/>
      </g>
     </g>
    </g>
    <g id="ytick_8">
     <g id="line2d_31">
      <path clip-path="url(#p6228b506b5)" d="M 115.2 464.4 
L 1368 464.4 
" style="fill:none;stroke:#ffffff;stroke-dasharray:1,1.65;stroke-dashoffset:0;"/>
     </g>
     <g id="line2d_32"/>
     <g id="text_16">
      <!-- Zabol, Iran (Islamic Republic of) -->
      <defs>
       <path d="M 5.609375 72.90625 
L 62.890625 72.90625 
L 62.890625 65.375 
L 16.796875 8.296875 
L 64.015625 8.296875 
L 64.015625 0 
L 4.5 0 
L 4.5 7.515625 
L 50.59375 64.59375 
L 5.609375 64.59375 
z
" id="DejaVuSans-5a"/>
      </defs>
      <g transform="translate(-111.39 469.718906)scale(0.14 -0.14)">
       <use xlink:href="#DejaVuSans-5a"/>
       <use x="68.505859" xlink:href="#DejaVuSans-61"/>
       <use x="129.785156" xlink:href="#DejaVuSans-62"/>
       <use x="193.261719" xlink:href="#DejaVuSans-6f"/>
       <use x="254.443359" xlink:href="#DejaVuSans-6c"/>
       <use x="282.226562" xlink:href="#DejaVuSans-2c"/>
       <use x="314.013672" xlink:href="#DejaVuSans-20"/>
       <use x="345.800781" xlink:href="#DejaVuSans-49"/>
       <use x="375.292969" xlink:href="#DejaVuSans-72"/>
       <use x="416.40625" xlink:href="#DejaVuSans-61"/>
       <use x="477.685547" xlink:href="#DejaVuSans-6e"/>
       <use x="541.064453" xlink:href="#DejaVuSans-20"/>
       <use x="572.851562" xlink:href="#DejaVuSans-28"/>
       <use x="611.865234" xlink:href="#DejaVuSans-49"/>
       <use x="641.357422" xlink:href="#DejaVuSans-73"/>
       <use x="693.457031" xlink:href="#DejaVuSans-6c"/>
       <use x="721.240234" xlink:href="#DejaVuSans-61"/>
       <use x="782.519531" xlink:href="#DejaVuSans-6d"/>
       <use x="879.931641" xlink:href="#DejaVuSans-69"/>
       <use x="907.714844" xlink:href="#DejaVuSans-63"/>
       <use x="962.695312" xlink:href="#DejaVuSans-20"/>
       <use x="994.482422" xlink:href="#DejaVuSans-52"/>
       <use x="1063.902344" xlink:href="#DejaVuSans-65"/>
       <use x="1125.425781" xlink:href="#DejaVuSans-70"/>
       <use x="1188.902344" xlink:href="#DejaVuSans-75"/>
       <use x="1252.28125" xlink:href="#DejaVuSans-62"/>
       <use x="1315.757812" xlink:href="#DejaVuSans-6c"/>
       <use x="1343.541016" xlink:href="#DejaVuSans-69"/>
       <use x="1371.324219" xlink:href="#DejaVuSans-63"/>
       <use x="1426.304688" xlink:href="#DejaVuSans-20"/>
       <use x="1458.091797" xlink:href="#DejaVuSans-6f"/>
       <use x="1519.273438" xlink:href="#DejaVuSans-66"/>
       <use x="1554.478516" xlink:href="#DejaVuSans-29"/>
      </g>
     </g>
    </g>
    <g id="ytick_9">
     <g id="line2d_33">
      <path clip-path="url(#p6228b506b5)" d="M 115.2 347.76 
L 1368 347.76 
" style="fill:none;stroke:#ffffff;stroke-dasharray:1,1.65;stroke-dashoffset:0;"/>
     </g>
     <g id="line2d_34"/>
     <g id="text_17">
      <!-- Peshawar, Pakistan -->
      <g transform="translate(-24.019063 353.078906)scale(0.14 -0.14)">
       <use xlink:href="#DejaVuSans-50"/>
       <use x="60.255859" xlink:href="#DejaVuSans-65"/>
       <use x="121.779297" xlink:href="#DejaVuSans-73"/>
       <use x="173.878906" xlink:href="#DejaVuSans-68"/>
       <use x="237.257812" xlink:href="#DejaVuSans-61"/>
       <use x="298.537109" xlink:href="#DejaVuSans-77"/>
       <use x="380.324219" xlink:href="#DejaVuSans-61"/>
       <use x="441.603516" xlink:href="#DejaVuSans-72"/>
       <use x="482.716797" xlink:href="#DejaVuSans-2c"/>
       <use x="514.503906" xlink:href="#DejaVuSans-20"/>
       <use x="546.291016" xlink:href="#DejaVuSans-50"/>
       <use x="606.53125" xlink:href="#DejaVuSans-61"/>
       <use x="667.810547" xlink:href="#DejaVuSans-6b"/>
       <use x="725.720703" xlink:href="#DejaVuSans-69"/>
       <use x="753.503906" xlink:href="#DejaVuSans-73"/>
       <use x="805.603516" xlink:href="#DejaVuSans-74"/>
       <use x="844.8125" xlink:href="#DejaVuSans-61"/>
       <use x="906.091797" xlink:href="#DejaVuSans-6e"/>
      </g>
     </g>
    </g>
    <g id="ytick_10">
     <g id="line2d_35">
      <path clip-path="url(#p6228b506b5)" d="M 115.2 231.12 
L 1368 231.12 
" style="fill:none;stroke:#ffffff;stroke-dasharray:1,1.65;stroke-dashoffset:0;"/>
     </g>
     <g id="line2d_36"/>
     <g id="text_18">
      <!-- Onitsha, Nigeria -->
      <g transform="translate(-1.304063 236.438906)scale(0.14 -0.14)">
       <use xlink:href="#DejaVuSans-4f"/>
       <use x="78.710938" xlink:href="#DejaVuSans-6e"/>
       <use x="142.089844" xlink:href="#DejaVuSans-69"/>
       <use x="169.873047" xlink:href="#DejaVuSans-74"/>
       <use x="209.082031" xlink:href="#DejaVuSans-73"/>
       <use x="261.181641" xlink:href="#DejaVuSans-68"/>
       <use x="324.560547" xlink:href="#DejaVuSans-61"/>
       <use x="385.839844" xlink:href="#DejaVuSans-2c"/>
       <use x="417.626953" xlink:href="#DejaVuSans-20"/>
       <use x="449.414062" xlink:href="#DejaVuSans-4e"/>
       <use x="524.21875" xlink:href="#DejaVuSans-69"/>
       <use x="552.001953" xlink:href="#DejaVuSans-67"/>
       <use x="615.478516" xlink:href="#DejaVuSans-65"/>
       <use x="677.001953" xlink:href="#DejaVuSans-72"/>
       <use x="718.115234" xlink:href="#DejaVuSans-69"/>
       <use x="745.898438" xlink:href="#DejaVuSans-61"/>
      </g>
     </g>
    </g>
    <g id="text_19">
     <!-- city_country -->
     <defs>
      <path d="M 50.984375 -16.609375 
L 50.984375 -23.578125 
L -0.984375 -23.578125 
L -0.984375 -16.609375 
z
" id="DejaVuSans-5f"/>
     </defs>
     <g transform="translate(-119.351125 807.540562)rotate(-90)scale(0.168 -0.168)">
      <use xlink:href="#DejaVuSans-63"/>
      <use x="54.980469" xlink:href="#DejaVuSans-69"/>
      <use x="82.763672" xlink:href="#DejaVuSans-74"/>
      <use x="121.972656" xlink:href="#DejaVuSans-79"/>
      <use x="181.152344" xlink:href="#DejaVuSans-5f"/>
      <use x="231.152344" xlink:href="#DejaVuSans-63"/>
      <use x="286.132812" xlink:href="#DejaVuSans-6f"/>
      <use x="347.314453" xlink:href="#DejaVuSans-75"/>
      <use x="410.693359" xlink:href="#DejaVuSans-6e"/>
      <use x="474.072266" xlink:href="#DejaVuSans-74"/>
      <use x="513.28125" xlink:href="#DejaVuSans-72"/>
      <use x="554.394531" xlink:href="#DejaVuSans-79"/>
     </g>
    </g>
   </g>
   <g id="patch_3">
    <path clip-path="url(#p6228b506b5)" d="M 115.2 1310.04 
L 777.162901 1310.04 
L 777.162901 1251.72 
L 115.2 1251.72 
z
" style="fill:#d3d3d3;"/>
   </g>
   <g id="patch_4">
    <path clip-path="url(#p6228b506b5)" d="M 115.2 1193.4 
L 787.223127 1193.4 
L 787.223127 1135.08 
L 115.2 1135.08 
z
" style="fill:#d3d3d3;"/>
   </g>
   <g id="patch_5">
    <path clip-path="url(#p6228b506b5)" d="M 115.2 1076.76 
L 837.524259 1076.76 
L 837.524259 1018.44 
L 115.2 1018.44 
z
" style="fill:#d3d3d3;"/>
   </g>
   <g id="patch_6">
    <path clip-path="url(#p6228b506b5)" d="M 115.2 960.12 
L 855.632667 960.12 
L 855.632667 901.8 
L 115.2 901.8 
z
" style="fill:#d3d3d3;"/>
   </g>
   <g id="patch_7">
    <path clip-path="url(#p6228b506b5)" d="M 115.2 843.48 
L 865.692893 843.48 
L 865.692893 785.16 
L 115.2 785.16 
z
" style="fill:#d3d3d3;"/>
   </g>
   <g id="patch_8">
    <path clip-path="url(#p6228b506b5)" d="M 115.2 726.84 
L 964.283113 726.84 
L 964.283113 668.52 
L 115.2 668.52 
z
" style="fill:#d3d3d3;"/>
   </g>
   <g id="patch_9">
    <path clip-path="url(#p6228b506b5)" d="M 115.2 610.2 
L 1016.59629 610.2 
L 1016.59629 551.88 
L 115.2 551.88 
z
" style="fill:#d3d3d3;"/>
   </g>
   <g id="patch_10">
    <path clip-path="url(#p6228b506b5)" d="M 115.2 493.56 
L 1173.535823 493.56 
L 1173.535823 435.24 
L 115.2 435.24 
z
" style="fill:#d3d3d3;"/>
   </g>
   <g id="patch_11">
    <path clip-path="url(#p6228b506b5)" d="M 115.2 376.92 
L 1201.704457 376.92 
L 1201.704457 318.6 
L 115.2 318.6 
z
" style="fill:#d3d3d3;"/>
   </g>
   <g id="patch_12">
    <path clip-path="url(#p6228b506b5)" d="M 115.2 260.28 
L 1308.342857 260.28 
L 1308.342857 201.96 
L 115.2 201.96 
z
" style="fill:#8b0000;"/>
   </g>
   <g id="line2d_37">
    <path clip-path="url(#p6228b506b5)" d="M 155.440906 1339.2 
L 155.440906 172.8 
" style="fill:none;stroke:#00008b;stroke-width:4;"/>
   </g>
   <g id="patch_13">
    <path d="M 115.2 1339.2 
L 115.2 172.8 
" style="fill:none;stroke:#f0f0f0;stroke-linecap:square;stroke-linejoin:miter;stroke-width:3;"/>
   </g>
   <g id="patch_14">
    <path d="M 1368 1339.2 
L 1368 172.8 
" style="fill:none;stroke:#f0f0f0;stroke-linecap:square;stroke-linejoin:miter;stroke-width:3;"/>
   </g>
   <g id="patch_15">
    <path d="M 115.2 1339.2 
L 1368 1339.2 
" style="fill:none;stroke:#f0f0f0;stroke-linecap:square;stroke-linejoin:miter;stroke-width:3;"/>
   </g>
   <g id="patch_16">
    <path d="M 115.2 172.8 
L 1368 172.8 
" style="fill:none;stroke:#f0f0f0;stroke-linecap:square;stroke-linejoin:miter;stroke-width:3;"/>
   </g>
   <g id="text_20">
    <!-- Top ten cities where the smog is killing you -->
    <defs>
     <path d="M 45.515625 79.046875 
L 45.515625 63.234375 
L 33.296875 63.234375 
L 33.296875 0 
L 12.75 0 
L 12.75 63.234375 
L 0.59375 63.234375 
L 0.59375 79.046875 
z
" id="Impact-54"/>
     <path d="M 48.140625 42.046875 
L 48.140625 26.171875 
Q 48.140625 17.4375 47.265625 13.359375 
Q 46.390625 9.28125 43.5 5.734375 
Q 40.625 2.203125 36.109375 0.515625 
Q 31.59375 -1.171875 25.734375 -1.171875 
Q 19.1875 -1.171875 14.640625 0.265625 
Q 10.109375 1.703125 7.59375 4.609375 
Q 5.078125 7.515625 4 11.640625 
Q 2.9375 15.765625 2.9375 24.03125 
L 2.9375 40.625 
Q 2.9375 49.65625 4.890625 54.734375 
Q 6.84375 59.8125 11.921875 62.890625 
Q 17 65.96875 24.90625 65.96875 
Q 31.546875 65.96875 36.296875 63.984375 
Q 41.0625 62.015625 43.640625 58.84375 
Q 46.234375 55.671875 47.1875 52.296875 
Q 48.140625 48.921875 48.140625 42.046875 
z
M 28.421875 46.921875 
Q 28.421875 51.90625 27.875 53.203125 
Q 27.34375 54.5 25.59375 54.5 
Q 23.828125 54.5 23.234375 53.203125 
Q 22.65625 51.90625 22.65625 46.921875 
L 22.65625 17.671875 
Q 22.65625 13.09375 23.234375 11.6875 
Q 23.828125 10.296875 25.53125 10.296875 
Q 27.296875 10.296875 27.859375 11.5625 
Q 28.421875 12.84375 28.421875 17.046875 
z
" id="Impact-6f"/>
     <path d="M 23.578125 64.796875 
L 23.25 59.078125 
Q 25.875 62.546875 29.046875 64.25 
Q 32.234375 65.96875 35.984375 65.96875 
Q 40.578125 65.96875 43.921875 63.5 
Q 47.265625 61.03125 48.09375 57.8125 
Q 48.921875 54.59375 48.921875 46.875 
L 48.921875 19.578125 
Q 48.921875 10.75 47.875 7 
Q 46.828125 3.265625 43.578125 1.046875 
Q 40.328125 -1.171875 35.75 -1.171875 
Q 32.078125 -1.171875 28.953125 0.53125 
Q 25.828125 2.25 23.25 5.609375 
L 23.25 -9.234375 
L 3.515625 -9.234375 
L 3.515625 64.796875 
z
M 29.203125 45.953125 
Q 29.203125 51.953125 28.765625 53.21875 
Q 28.328125 54.5 26.3125 54.5 
Q 24.359375 54.5 23.796875 53.03125 
Q 23.25 51.5625 23.25 45.953125 
L 23.25 19.09375 
Q 23.25 13.234375 23.828125 11.765625 
Q 24.421875 10.296875 26.375 10.296875 
Q 28.265625 10.296875 28.734375 11.640625 
Q 29.203125 12.984375 29.203125 18.171875 
z
" id="Impact-70"/>
     <path id="Impact-20"/>
     <path d="M 24.3125 73.4375 
L 24.3125 63.234375 
L 29.640625 63.234375 
L 29.640625 52.984375 
L 24.3125 52.984375 
L 24.3125 18.3125 
Q 24.3125 11.921875 24.96875 11.1875 
Q 25.640625 10.453125 30.46875 10.453125 
L 30.46875 0 
L 22.515625 0 
Q 15.765625 0 12.890625 0.5625 
Q 10.015625 1.125 7.8125 3.140625 
Q 5.609375 5.171875 5.078125 7.78125 
Q 4.546875 10.40625 4.546875 20.0625 
L 4.546875 52.984375 
L 0.296875 52.984375 
L 0.296875 63.234375 
L 4.546875 63.234375 
L 4.546875 73.4375 
z
" id="Impact-74"/>
     <path d="M 48.1875 31.25 
L 22.65625 31.25 
L 22.65625 17.234375 
Q 22.65625 12.84375 23.28125 11.5625 
Q 23.921875 10.296875 25.734375 10.296875 
Q 27.984375 10.296875 28.734375 11.984375 
Q 29.5 13.671875 29.5 18.5 
L 29.5 27.046875 
L 48.1875 27.046875 
L 48.1875 22.265625 
Q 48.1875 16.265625 47.4375 13.03125 
Q 46.6875 9.8125 43.890625 6.140625 
Q 41.109375 2.484375 36.828125 0.65625 
Q 32.5625 -1.171875 26.125 -1.171875 
Q 19.875 -1.171875 15.078125 0.625 
Q 10.296875 2.4375 7.640625 5.578125 
Q 4.984375 8.734375 3.953125 12.515625 
Q 2.9375 16.3125 2.9375 23.53125 
L 2.9375 42.4375 
Q 2.9375 50.921875 5.21875 55.828125 
Q 7.515625 60.75 12.734375 63.359375 
Q 17.96875 65.96875 24.75 65.96875 
Q 33.0625 65.96875 38.453125 62.8125 
Q 43.84375 59.671875 46.015625 54.46875 
Q 48.1875 49.265625 48.1875 39.84375 
z
M 28.421875 41.796875 
L 28.421875 46.53125 
Q 28.421875 51.5625 27.875 53.03125 
Q 27.34375 54.5 25.6875 54.5 
Q 23.640625 54.5 23.140625 53.25 
Q 22.65625 52 22.65625 46.53125 
L 22.65625 41.796875 
z
" id="Impact-65"/>
     <path d="M 23.578125 64.796875 
L 23.25 58.84375 
Q 25.390625 62.40625 28.484375 64.1875 
Q 31.59375 65.96875 35.640625 65.96875 
Q 40.71875 65.96875 43.9375 63.578125 
Q 47.171875 61.1875 48.09375 57.546875 
Q 49.03125 53.90625 49.03125 45.40625 
L 49.03125 0 
L 29.296875 0 
L 29.296875 44.875 
Q 29.296875 51.5625 28.859375 53.03125 
Q 28.421875 54.5 26.421875 54.5 
Q 24.3125 54.5 23.78125 52.8125 
Q 23.25 51.125 23.25 43.796875 
L 23.25 0 
L 3.515625 0 
L 3.515625 64.796875 
z
" id="Impact-6e"/>
     <path d="M 47.125 40.328125 
L 28.515625 40.328125 
L 28.515625 47.796875 
Q 28.515625 51.703125 27.875 53.09375 
Q 27.25 54.5 25.53125 54.5 
Q 23.828125 54.5 23.234375 53.265625 
Q 22.65625 52.046875 22.65625 47.796875 
L 22.65625 17.234375 
Q 22.65625 13.765625 23.53125 12.03125 
Q 24.421875 10.296875 26.125 10.296875 
Q 28.125 10.296875 28.828125 12.109375 
Q 29.546875 13.921875 29.546875 18.953125 
L 29.546875 26.65625 
L 47.125 26.65625 
Q 47.078125 18.890625 46.5625 15.015625 
Q 46.046875 11.140625 43.28125 7.0625 
Q 40.53125 2.984375 36.078125 0.90625 
Q 31.640625 -1.171875 25.09375 -1.171875 
Q 16.75 -1.171875 11.859375 1.6875 
Q 6.984375 4.546875 4.953125 9.6875 
Q 2.9375 14.84375 2.9375 24.3125 
L 2.9375 42.71875 
Q 2.9375 50.984375 4.59375 55.171875 
Q 6.25 59.375 11.671875 62.671875 
Q 17.09375 65.96875 24.859375 65.96875 
Q 32.5625 65.96875 38.03125 62.6875 
Q 43.5 59.421875 45.3125 54.4375 
Q 47.125 49.46875 47.125 40.328125 
z
" id="Impact-63"/>
     <path d="M 23.828125 79.046875 
L 23.828125 68.75 
L 3.515625 68.75 
L 3.515625 79.046875 
z
M 23.828125 64.796875 
L 23.828125 0 
L 3.515625 0 
L 3.515625 64.796875 
z
" id="Impact-69"/>
     <path d="M 43.796875 44.09375 
L 26.3125 44.09375 
L 26.3125 47.609375 
Q 26.3125 52.09375 25.796875 53.296875 
Q 25.296875 54.5 23.25 54.5 
Q 21.578125 54.5 20.75 53.390625 
Q 19.921875 52.296875 19.921875 50.09375 
Q 19.921875 47.125 20.328125 45.734375 
Q 20.75 44.34375 22.828125 42.671875 
Q 24.90625 41.015625 31.34375 37.84375 
Q 39.9375 33.640625 42.625 29.9375 
Q 45.3125 26.21875 45.3125 19.140625 
Q 45.3125 11.234375 43.265625 7.203125 
Q 41.21875 3.171875 36.40625 1 
Q 31.59375 -1.171875 24.8125 -1.171875 
Q 17.28125 -1.171875 11.9375 1.171875 
Q 6.59375 3.515625 4.59375 7.515625 
Q 2.59375 11.53125 2.59375 19.625 
L 2.59375 22.75 
L 20.0625 22.75 
L 20.0625 18.65625 
Q 20.0625 13.421875 20.71875 11.859375 
Q 21.390625 10.296875 23.34375 10.296875 
Q 25.4375 10.296875 26.265625 11.34375 
Q 27.09375 12.40625 27.09375 15.765625 
Q 27.09375 20.40625 26.03125 21.578125 
Q 24.90625 22.75 14.546875 28.515625 
Q 5.859375 33.40625 3.953125 37.375 
Q 2.046875 41.359375 2.046875 46.828125 
Q 2.046875 54.59375 4.09375 58.28125 
Q 6.15625 61.96875 11.0625 63.96875 
Q 15.96875 65.96875 22.46875 65.96875 
Q 28.90625 65.96875 33.421875 64.328125 
Q 37.9375 62.703125 40.359375 60.015625 
Q 42.78125 57.328125 43.28125 55.03125 
Q 43.796875 52.734375 43.796875 47.859375 
z
" id="Impact-73"/>
     <path d="M 67.234375 64.796875 
L 59.375 0 
L 37.9375 0 
Q 36.1875 11.859375 33.890625 31.25 
Q 33.109375 22.75 31.6875 14.0625 
L 29.5 0 
L 8.0625 0 
L -0.296875 64.796875 
L 16.703125 64.796875 
Q 16.890625 62.25 21 27.734375 
Q 21.296875 31.25 25.390625 64.796875 
L 41.75 64.796875 
L 45.75 27.734375 
Q 46.6875 43.953125 50.25 64.796875 
z
" id="Impact-77"/>
     <path d="M 23.25 79.046875 
L 23.25 61.28125 
Q 25.78125 63.625 28.734375 64.796875 
Q 31.6875 65.96875 35.0625 65.96875 
Q 40.234375 65.96875 43.875 63.328125 
Q 47.515625 60.6875 48.3125 57.25 
Q 49.125 53.8125 49.125 44.671875 
L 49.125 0 
L 29.390625 0 
L 29.390625 45.609375 
Q 29.390625 51.265625 28.828125 52.875 
Q 28.265625 54.5 26.3125 54.5 
Q 24.515625 54.5 23.875 52.828125 
Q 23.25 51.171875 23.25 46.234375 
L 23.25 0 
L 3.515625 0 
L 3.515625 79.046875 
z
" id="Impact-68"/>
     <path d="M 23.25 64.796875 
L 22.46875 56.296875 
Q 26.765625 65.4375 34.90625 65.96875 
L 34.90625 43.171875 
Q 29.5 43.171875 26.953125 41.703125 
Q 24.421875 40.234375 23.828125 37.625 
Q 23.25 35.015625 23.25 25.59375 
L 23.25 0 
L 3.515625 0 
L 3.515625 64.796875 
z
" id="Impact-72"/>
     <path d="M 23 64.796875 
L 22.65625 58.640625 
Q 24.953125 62.3125 28.125 64.140625 
Q 31.296875 65.96875 35.359375 65.96875 
Q 43.265625 65.96875 47.796875 58.640625 
Q 50.296875 62.3125 53.421875 64.140625 
Q 56.546875 65.96875 60.359375 65.96875 
Q 65.375 65.96875 68.671875 63.515625 
Q 71.96875 61.078125 72.890625 57.53125 
Q 73.828125 54 73.828125 46.046875 
L 73.828125 0 
L 54.6875 0 
L 54.6875 42.234375 
Q 54.6875 50.53125 54.125 52.515625 
Q 53.5625 54.5 51.515625 54.5 
Q 49.421875 54.5 48.796875 52.546875 
Q 48.1875 50.59375 48.1875 42.234375 
L 48.1875 0 
L 29.046875 0 
L 29.046875 41.15625 
Q 29.046875 50.6875 28.578125 52.59375 
Q 28.125 54.5 26.03125 54.5 
Q 24.703125 54.5 23.78125 53.484375 
Q 22.859375 52.484375 22.75 51.046875 
Q 22.65625 49.609375 22.65625 44.921875 
L 22.65625 0 
L 3.515625 0 
L 3.515625 64.796875 
z
" id="Impact-6d"/>
     <path d="M 48.34375 64.796875 
L 48.34375 14.890625 
Q 48.34375 4.78125 47.875 1.828125 
Q 47.40625 -1.125 44.578125 -4.421875 
Q 41.75 -7.71875 36.6875 -9.453125 
Q 31.640625 -11.1875 23.96875 -11.1875 
Q 14.546875 -11.1875 8.828125 -7.984375 
Q 3.125 -4.78125 2.9375 4.59375 
L 22.078125 4.59375 
Q 22.078125 0.296875 25.203125 0.296875 
Q 27.4375 0.296875 28.171875 1.609375 
Q 28.90625 2.9375 28.90625 7.125 
L 28.90625 12.015625 
Q 26.375 9.71875 23.5625 8.546875 
Q 20.75 7.375 17.671875 7.375 
Q 12.359375 7.375 8.90625 9.515625 
Q 5.46875 11.671875 4.203125 15.15625 
Q 2.9375 18.65625 2.9375 25.09375 
L 2.9375 48.640625 
Q 2.9375 57.859375 6.25 61.90625 
Q 9.578125 65.96875 16.359375 65.96875 
Q 20.0625 65.96875 23.109375 64.453125 
Q 26.171875 62.9375 28.5625 59.90625 
L 29.984375 64.796875 
z
M 28.5625 47.609375 
Q 28.5625 52.046875 28.046875 53.265625 
Q 27.546875 54.5 25.78125 54.5 
Q 24.078125 54.5 23.359375 53.09375 
Q 22.65625 51.703125 22.65625 47.609375 
L 22.65625 25.828125 
Q 22.65625 21.484375 23.1875 20.1875 
Q 23.734375 18.890625 25.4375 18.890625 
Q 27.390625 18.890625 27.96875 20.453125 
Q 28.5625 22.015625 28.5625 27.546875 
z
" id="Impact-67"/>
     <path d="M 46 64.796875 
L 37.984375 38.96875 
L 48.390625 0 
L 29.390625 0 
L 23.25 28.21875 
L 23.25 0 
L 3.515625 0 
L 3.515625 79.046875 
L 23.25 79.046875 
L 23.25 45.84375 
L 29.390625 64.796875 
z
" id="Impact-6b"/>
     <path d="M 23.828125 79.046875 
L 23.828125 0 
L 3.515625 0 
L 3.515625 79.046875 
z
" id="Impact-6c"/>
     <path d="M 44.828125 64.796875 
L 39.15625 17.921875 
Q 37.84375 6.78125 36.9375 2.734375 
Q 36.03125 -1.3125 33.9375 -3.953125 
Q 31.84375 -6.59375 28.09375 -7.828125 
Q 24.359375 -9.078125 16.15625 -9.078125 
L 4.203125 -9.078125 
L 4.203125 1.265625 
Q 8.796875 1.265625 10.109375 1.734375 
Q 11.421875 2.203125 11.421875 3.8125 
Q 11.421875 4.59375 10.203125 10.59375 
L -0.59375 64.796875 
L 17.328125 64.796875 
L 23.78125 21.09375 
L 26.90625 64.796875 
z
" id="Impact-79"/>
     <path d="M 48.6875 64.796875 
L 48.6875 0 
L 28.609375 0 
L 28.953125 5.375 
Q 26.90625 2.09375 23.90625 0.453125 
Q 20.90625 -1.171875 17 -1.171875 
Q 12.546875 -1.171875 9.609375 0.390625 
Q 6.6875 1.953125 5.296875 4.53125 
Q 3.90625 7.125 3.5625 9.9375 
Q 3.21875 12.75 3.21875 21.09375 
L 3.21875 64.796875 
L 22.953125 64.796875 
L 22.953125 20.703125 
Q 22.953125 13.140625 23.40625 11.71875 
Q 23.875 10.296875 25.921875 10.296875 
Q 28.125 10.296875 28.53125 11.765625 
Q 28.953125 13.234375 28.953125 21.1875 
L 28.953125 64.796875 
z
" id="Impact-75"/>
    </defs>
    <g transform="translate(301.689844 142.8)scale(0.5 -0.5)">
     <use xlink:href="#Impact-54"/>
     <use x="46.09375" xlink:href="#Impact-6f"/>
     <use x="97.216797" xlink:href="#Impact-70"/>
     <use x="149.121094" xlink:href="#Impact-20"/>
     <use x="166.748047" xlink:href="#Impact-74"/>
     <use x="197.216797" xlink:href="#Impact-65"/>
     <use x="248.339844" xlink:href="#Impact-6e"/>
     <use x="300.634766" xlink:href="#Impact-20"/>
     <use x="318.261719" xlink:href="#Impact-63"/>
     <use x="367.724609" xlink:href="#Impact-69"/>
     <use x="395.117188" xlink:href="#Impact-74"/>
     <use x="425.585938" xlink:href="#Impact-69"/>
     <use x="452.978516" xlink:href="#Impact-65"/>
     <use x="504.101562" xlink:href="#Impact-73"/>
     <use x="551.171875" xlink:href="#Impact-20"/>
     <use x="568.798828" xlink:href="#Impact-77"/>
     <use x="635.742188" xlink:href="#Impact-68"/>
     <use x="688.134766" xlink:href="#Impact-65"/>
     <use x="739.257812" xlink:href="#Impact-72"/>
     <use x="775.048828" xlink:href="#Impact-65"/>
     <use x="826.171875" xlink:href="#Impact-20"/>
     <use x="843.798828" xlink:href="#Impact-74"/>
     <use x="874.267578" xlink:href="#Impact-68"/>
     <use x="926.660156" xlink:href="#Impact-65"/>
     <use x="977.783203" xlink:href="#Impact-20"/>
     <use x="995.410156" xlink:href="#Impact-73"/>
     <use x="1042.480469" xlink:href="#Impact-6d"/>
     <use x="1119.580078" xlink:href="#Impact-6f"/>
     <use x="1170.703125" xlink:href="#Impact-67"/>
     <use x="1222.558594" xlink:href="#Impact-20"/>
     <use x="1240.185547" xlink:href="#Impact-69"/>
     <use x="1267.578125" xlink:href="#Impact-73"/>
     <use x="1314.648438" xlink:href="#Impact-20"/>
     <use x="1332.275391" xlink:href="#Impact-6b"/>
     <use x="1380.078125" xlink:href="#Impact-69"/>
     <use x="1407.470703" xlink:href="#Impact-6c"/>
     <use x="1434.863281" xlink:href="#Impact-6c"/>
     <use x="1462.255859" xlink:href="#Impact-69"/>
     <use x="1489.648438" xlink:href="#Impact-6e"/>
     <use x="1541.943359" xlink:href="#Impact-67"/>
     <use x="1593.798828" xlink:href="#Impact-20"/>
     <use x="1611.425781" xlink:href="#Impact-79"/>
     <use x="1656.25" xlink:href="#Impact-6f"/>
     <use x="1707.373047" xlink:href="#Impact-75"/>
    </g>
   </g>
  </g>
 </g>
 <defs>
  <clipPath id="p6228b506b5">
   <rect height="1166.4" width="1252.8" x="115.2" y="172.8"/>
  </clipPath>
 </defs>
</svg>
